<svg width="24" height="24" viewBox="0 0 24 24" fill="none" xmlns="http://www.w3.org/2000/svg">
<path d="M16.5511 20.28C15.5711 21.23 14.5011 21.08 13.4711 20.63C12.3811 20.17 11.3811 20.15 10.2311 20.63C8.79114 21.25 8.03114 21.07 7.17114 20.28C2.29114 15.25 3.01114 7.59 8.55114 7.31C9.90114 7.38 10.8411 8.05 11.6311 8.11C12.8111 7.87 13.9411 7.18 15.2011 7.27C16.7111 7.39 17.8511 7.99 18.6011 9.07C15.4811 10.94 16.2211 15.05 19.0811 16.2C18.5111 17.7 17.7711 19.19 16.5411 20.29L16.5511 20.28ZM11.5311 7.25C11.3811 5.02 13.1911 3.18 15.2711 3C15.5611 5.58 12.9311 7.5 11.5311 7.25Z" fill="white"/>
</svg>
