<svg width="145" height="105" viewBox="0 0 145 105" fill="none" xmlns="http://www.w3.org/2000/svg">
<g filter="url(#filter0_d_9041_1751)">
<path fill-rule="evenodd" clip-rule="evenodd" d="M85.5666 14.6443C87.3859 11.8789 88.2697 8.53569 87.8741 4.5948C86.5232 -8.86216 77.556 -15.9442 65.8418 -18.8552C49.3763 -22.9434 27.3309 -18.4656 15.7585 -12.9289C14.4065 -12.2816 13.836 -10.6603 14.4806 -9.30882C15.1285 -7.95955 16.7493 -7.38636 18.1012 -8.03367C28.831 -13.1675 49.2648 -17.3804 64.5323 -13.5877C73.976 -11.2443 81.3856 -5.70903 82.4759 5.13784C82.7112 7.48377 82.2425 9.49112 81.2621 11.1932C80.1858 10.3794 79.102 9.59182 78.0125 8.83356C73.649 5.80218 61.0204 0.131385 51.0729 -0.489953C43.2014 -0.980254 37.0042 1.62436 35.8061 9.1622C35.1188 13.4777 37.1221 17.131 41.021 19.8272C45.8294 23.1515 53.795 24.9705 61.7976 24.7593C68.4516 24.5861 75.0984 23.0176 79.9385 19.98C80.6169 19.5547 81.2619 19.1011 81.8704 18.6213C101.702 35.2648 118.056 61.6732 122.49 86.479C122.753 87.9524 124.163 88.9331 125.639 88.6706C127.112 88.4075 128.093 86.9955 127.83 85.5222C123.206 59.6486 106.218 32.0979 85.5666 14.6443ZM77.4541 15.1192C76.6133 14.4929 75.7669 13.882 74.9164 13.2926C71.0001 10.5711 59.6647 5.48411 50.7349 4.92589C46.0093 4.63121 41.8849 5.49214 41.1641 10.0167C40.8103 12.236 42.1023 13.9788 44.107 15.3635C46.7641 17.2012 50.6092 18.3969 54.8323 18.9731C61.3844 19.8629 68.8558 19.2296 74.5252 16.7168C75.5725 16.2527 76.5576 15.7218 77.4541 15.1192Z" fill="#35312B"/>
<path fill-rule="evenodd" clip-rule="evenodd" d="M92.4655 62.3904C104.21 66.7368 115.633 77.1039 122.982 87.3228C123.856 88.5377 125.551 88.8158 126.769 87.9419C127.984 87.0675 128.262 85.3695 127.388 84.1546C119.445 73.1125 107.038 61.9959 94.3489 57.3018C92.9443 56.7828 91.383 57.5015 90.864 58.9061C90.345 60.3107 91.0609 61.8713 92.4655 62.3904Z" fill="#35312B"/>
<path fill-rule="evenodd" clip-rule="evenodd" d="M127.857 84.4782C124.482 74.753 126.343 61.1507 130.723 51.8002C131.357 50.442 130.771 48.8254 129.415 48.1913C128.06 47.5572 126.443 48.1415 125.806 49.4991C120.886 60.0129 118.935 75.3234 122.73 86.2587C123.22 87.6722 124.769 88.4226 126.183 87.9304C127.597 87.4382 128.347 85.8917 127.857 84.4782Z" fill="#35312B"/>
</g>
<defs>
<filter id="filter0_d_9041_1751" x="2.11548" y="-28.541" width="140.963" height="133.354" filterUnits="userSpaceOnUse" color-interpolation-filters="sRGB">
<feFlood flood-opacity="0" result="BackgroundImageFix"/>
<feColorMatrix in="SourceAlpha" type="matrix" values="0 0 0 0 0 0 0 0 0 0 0 0 0 0 0 0 0 0 127 0" result="hardAlpha"/>
<feOffset dy="4"/>
<feGaussianBlur stdDeviation="6.05"/>
<feComposite in2="hardAlpha" operator="out"/>
<feColorMatrix type="matrix" values="0 0 0 0 0 0 0 0 0 0 0 0 0 0 0 0 0 0 0.25 0"/>
<feBlend mode="normal" in2="BackgroundImageFix" result="effect1_dropShadow_9041_1751"/>
<feBlend mode="normal" in="SourceGraphic" in2="effect1_dropShadow_9041_1751" result="shape"/>
</filter>
</defs>
</svg>
