<svg width="65" height="65" viewBox="0 0 65 65" fill="none" xmlns="http://www.w3.org/2000/svg">
<path d="M0 58.8842V6.08044C0.043358 5.9421 0.0970392 5.80584 0.125944 5.6675C0.52236 3.70814 1.52372 2.12248 3.24565 1.12524C4.11694 0.61527 5.13895 0.36751 6.09489 0H40.3683C40.7813 0.111492 41.1756 0.206466 41.5741 0.338605C44.5451 1.28009 46.4281 3.94145 46.4322 7.24904C46.4433 13.0879 46.4433 18.9268 46.4322 24.7657V25.5254H62.3302C64.0748 25.5254 64.9894 26.4401 64.9894 28.1847C64.9894 36.5205 64.9894 44.8562 64.9894 53.192C64.9979 53.9316 64.9377 54.6705 64.8098 55.3991C63.7362 61.0934 59.0288 64.9894 53.2332 64.9936C42.6993 64.9936 32.164 64.9936 21.6274 64.9936C16.7837 64.9936 11.9379 65.008 7.09419 64.9936C4.35231 64.9812 2.24223 63.7775 0.900194 61.3866C0.462485 60.6165 0.293182 59.7225 0 58.8842ZM41.7764 60.3295V7.38118C41.7764 5.47962 40.9361 4.64137 39.0284 4.64137H7.42453C5.47756 4.64137 4.64962 5.46723 4.64962 7.4204V57.5546C4.64962 59.5016 5.47549 60.3295 7.42866 60.3295H41.7764ZM60.3171 30.2205H46.4839V60.3295C48.5031 60.3295 50.4687 60.3295 52.4342 60.3295C53.1525 60.3543 53.8715 60.3177 54.5835 60.2201C58.0646 59.6007 60.3316 56.7762 60.3357 53.0805C60.3481 45.678 60.3481 38.2748 60.3357 30.8709C60.3378 30.6603 60.3378 30.4559 60.3171 30.2205Z" fill="white"/>
<path d="M25.5978 18.5451C27.0245 18.5451 28.4388 18.5327 29.851 18.5451C30.2514 18.5431 30.6495 18.6058 31.0299 18.7309C31.5191 18.9146 31.9299 19.2613 32.1932 19.7127C32.4564 20.164 32.5561 20.6923 32.4752 21.2085C32.3922 21.7588 32.1148 22.2611 31.6932 22.6244C31.2716 22.9877 30.7337 23.1878 30.1772 23.1885C28.8889 23.2153 27.5985 23.1885 26.308 23.1885H25.5276V24.0908C25.5276 25.3585 25.5462 26.6282 25.5276 27.898C25.5142 28.4974 25.2674 29.068 24.8398 29.4882C24.4122 29.9085 23.8375 30.1454 23.2379 30.1485C22.6487 30.1583 22.0787 29.9388 21.6484 29.5362C21.218 29.1336 20.961 28.5795 20.9317 27.9909C20.88 26.6386 20.911 25.2841 20.9069 23.9297V23.1885C19.3357 23.1885 17.8388 23.203 16.3419 23.1885C14.845 23.174 13.8643 22.088 13.9593 20.6552C14.0398 19.4391 15.0267 18.5554 16.3749 18.5327C17.6137 18.512 18.8691 18.5327 20.1182 18.5327H20.9027V17.8162C20.9027 16.5258 20.8862 15.2354 20.9027 13.945C20.9296 12.572 21.9103 11.5871 23.2048 11.583C24.4994 11.5789 25.509 12.6154 25.5214 13.9987C25.5338 15.4439 25.5214 16.8748 25.5338 18.3118C25.5478 18.3914 25.5692 18.4695 25.5978 18.5451Z" fill="white"/>
<path d="M23.2089 51.0386C20.1229 51.0386 17.0355 51.0386 13.9468 51.0386C13.4966 51.0418 13.0552 50.9133 12.677 50.669C12.2988 50.4247 12.0002 50.0753 11.818 49.6636C11.6357 49.2519 11.5777 48.7959 11.6511 48.3517C11.7245 47.9075 11.926 47.4944 12.231 47.1632C12.7266 46.6078 13.3728 46.4199 14.1119 46.422C17.7478 46.4344 21.3858 46.422 25.0237 46.422C27.5405 46.422 30.0574 46.4096 32.5742 46.422C33.1185 46.4276 33.6424 46.6298 34.0492 46.9915C34.456 47.3531 34.7182 47.8497 34.7875 48.3896C34.8717 48.939 34.7528 49.5001 34.4529 49.968C34.153 50.4359 33.6928 50.7784 33.1585 50.9312C32.851 51.0048 32.535 51.0361 32.2191 51.0241C29.215 51.0386 26.2129 51.0386 23.2089 51.0386Z" fill="white"/>
<path d="M18.5344 41.762C17.0355 41.762 15.5345 41.762 14.0355 41.762C12.6439 41.7475 11.6116 40.7709 11.6116 39.4599C11.6116 38.1488 12.5758 37.1578 13.955 37.1454C17.0382 37.1123 20.1222 37.1123 23.2068 37.1454C23.52 37.1356 23.8318 37.1913 24.1223 37.3088C24.4129 37.4263 24.6757 37.6031 24.894 37.8279C25.1124 38.0527 25.2815 38.3205 25.3906 38.6143C25.4996 38.9081 25.5463 39.2214 25.5274 39.5342C25.4944 40.8184 24.4951 41.7537 23.1015 41.7599C21.5757 41.7682 20.0561 41.762 18.5344 41.762Z" fill="white"/>
</svg>
