<svg width="65" height="65" viewBox="0 0 65 65" fill="none" xmlns="http://www.w3.org/2000/svg">
<path d="M62.9184 46.8609C61.8723 45.8961 60.3184 45.6625 59.0387 46.2922L43.8449 53.4828V53.493C43.8551 53.3609 43.8652 53.2289 43.8856 53.0766C43.9668 51.3195 43.0832 49.6336 41.5699 48.6586C40.8895 48.2219 40.0973 47.9477 39.2645 47.8766L32.6324 47.2672C30.3371 47.0438 28.1434 46.5563 26.102 45.7844C25.4215 45.5305 24.8121 45.2867 24.2434 45.0125C23.6035 44.7078 22.9231 44.4234 22.1106 44.0984C20.5871 43.5195 18.9926 43.2555 17.3676 43.3164L16.1895 43.3672L16.1387 42.1891C16.0981 41.2242 15.2652 40.4727 14.3207 40.5133L1.68634 41.0211C0.731652 41.0617 -0.0199103 41.8844 0.00040221 42.8492L0.823058 63.3242C0.863683 64.2586 1.64571 65 2.59025 65H2.64103L15.2551 64.4922C15.7324 64.4719 16.159 64.2789 16.484 63.9336C16.7988 63.5883 16.9613 63.1414 16.9512 62.6742C16.941 62.6742 16.941 62.6742 16.941 62.6641L16.9004 61.6078L21.6738 63.0399C25.391 64.157 29.2402 64.7258 33.1199 64.7258C33.6582 64.7258 34.2066 64.7156 34.7449 64.6953L40.6152 64.4617C42.7988 64.3805 44.9418 63.6899 46.8004 62.4914L62.4512 52.3149C63.4363 51.6649 64.0254 50.5781 64.0254 49.4C64.0254 48.4149 63.6293 47.5109 62.9184 46.8609ZM12.1777 58.5609C12.1777 59.4445 11.8527 60.2875 11.2535 60.9375C10.6238 61.618 9.77071 62.0141 8.84649 62.0445C8.79571 62.0547 8.75509 62.0547 8.70431 62.0547C6.85587 62.0547 5.31212 60.582 5.24103 58.7133C5.2004 57.7891 5.5254 56.9055 6.15509 56.225C6.78478 55.5445 7.6379 55.1484 8.57228 55.1078C9.50665 55.0774 10.3801 55.4024 11.0606 56.032C11.741 56.6617 12.1371 57.5149 12.1777 58.4391V58.5609ZM61.9027 51.4719L46.2621 61.6484C44.5559 62.7555 42.5856 63.3852 40.5746 63.4563L34.7043 63.6899C30.3879 63.8727 26.0918 63.3242 21.9582 62.0852L16.8598 60.5617L16.2199 44.3727L17.3981 44.3219C18.891 44.2711 20.3434 44.5047 21.7348 45.0328C22.527 45.3375 23.177 45.6219 23.7965 45.9164C24.3856 46.2008 25.0254 46.4649 25.7363 46.7188C27.859 47.5109 30.1441 48.0289 32.5207 48.2524L39.1629 48.8617C39.8332 48.9227 40.4731 49.1359 41.0113 49.4914C42.2199 50.2633 42.9309 51.6141 42.8699 53.0359C42.8496 53.2492 42.8293 53.4828 42.7988 53.7164C42.7785 53.8383 42.7176 53.95 42.6262 54.0313C42.616 54.0414 42.6059 54.0414 42.5957 54.0516C42.5246 54.0922 42.4332 54.1227 42.352 54.1328L33.5262 54.4883C33.252 54.4984 33.0387 54.732 33.0488 55.0063C33.059 55.2703 33.2824 55.4836 33.5465 55.4836C33.5566 55.4836 33.5566 55.4836 33.5668 55.4836L42.3926 55.1281C42.6262 55.118 42.8598 55.0469 43.0629 54.9352C43.0731 54.9352 43.0731 54.925 43.0832 54.925L43.1543 54.8844L59.4652 47.1758C60.3793 46.7289 61.4863 46.8813 62.2277 47.5719C62.7356 48.0391 63.0199 48.6789 63.0199 49.3797C63.0301 50.243 62.6035 51.0149 61.9027 51.4719Z" fill="white"/>
<path d="M8.71448 56.1031C8.67385 56.1031 8.64338 56.1133 8.61291 56.1133C7.95276 56.1336 7.34338 56.418 6.88635 56.9055C6.43948 57.3828 6.20588 58.0226 6.23635 58.6828C6.28713 60.0437 7.4551 61.1203 8.80588 61.0492C9.46604 61.0187 10.0754 60.7445 10.5223 60.257C10.9692 59.7695 11.2028 59.1398 11.1723 58.4797C11.152 57.8195 10.8676 57.2101 10.3801 56.7633C9.92307 56.3367 9.33401 56.1031 8.71448 56.1031ZM25.3606 4.69219C26.4778 4.69219 27.4121 3.9 27.6356 2.84375H30.1949C30.4489 2.84375 30.652 3.04687 30.652 3.30078V7.97266C30.652 8.24687 30.8754 8.47031 31.1496 8.47031C31.4239 8.47031 31.6473 8.24687 31.6473 7.97266V3.30078C31.6473 2.49844 30.9973 1.84844 30.1949 1.84844H27.6356C27.4121 0.792188 26.4778 0 25.3606 0C24.0606 0 23.0145 1.05625 23.0145 2.34609C23.0145 3.63594 24.0606 4.69219 25.3606 4.69219ZM39.9449 8.47031C40.2192 8.47031 40.4426 8.24687 40.4426 7.97266V3.30078C40.4426 3.04687 40.6457 2.84375 40.8996 2.84375H43.4488C43.6723 3.9 44.6168 4.69219 45.734 4.69219C47.0238 4.69219 48.0801 3.63594 48.0801 2.34609C48.0801 1.05625 47.0238 0 45.734 0C44.6168 0 43.6723 0.792188 43.4488 1.84844H40.8996C40.0973 1.84844 39.4473 2.49844 39.4473 3.30078V7.97266C39.4473 8.24687 39.6707 8.47031 39.9449 8.47031ZM30.6418 34.1555V38.6141C30.6418 38.868 30.4387 39.0711 30.1848 39.0711H27.6356C27.4121 38.0148 26.4778 37.2227 25.3606 37.2227C24.0606 37.2227 23.0145 38.2789 23.0145 39.5687C23.0145 40.8687 24.0606 41.9148 25.3606 41.9148C26.4778 41.9148 27.4121 41.1328 27.6356 40.0766H30.1848C30.9871 40.0766 31.6371 39.4266 31.6371 38.6242V34.1656C31.6371 33.8914 31.4137 33.668 31.1395 33.668C30.8653 33.6477 30.6418 33.8711 30.6418 34.1555ZM39.9449 33.6477C39.6707 33.6477 39.4473 33.8711 39.4473 34.1453V38.6039C39.4473 39.4062 40.0973 40.0562 40.8996 40.0562H43.4488C43.6723 41.1125 44.6168 41.8945 45.734 41.8945C47.0238 41.8945 48.0801 40.8484 48.0801 39.5484C48.0801 38.2586 47.0238 37.2023 45.734 37.2023C44.6168 37.2023 43.6723 37.9945 43.4488 39.0508H40.8996C40.6457 39.0508 40.4426 38.8477 40.4426 38.5937V34.1352C40.4426 33.8711 40.2192 33.6477 39.9449 33.6477ZM49.634 17.0523H53.1989C54.0012 17.0523 54.6512 16.4023 54.6512 15.6V13.0609C55.6973 12.8273 56.4996 11.8828 56.4996 10.7656C56.4996 9.47578 55.4434 8.41953 54.1535 8.41953C52.8637 8.41953 51.8074 9.47578 51.8074 10.7656C51.8074 11.8828 52.6098 12.8273 53.6559 13.0609V15.6C53.6559 15.8539 53.4528 16.057 53.1989 16.057H49.634C49.3598 16.057 49.1364 16.2805 49.1364 16.5547C49.1364 16.8289 49.3598 17.0523 49.634 17.0523ZM51.8074 31.1391C51.8074 32.4391 52.8637 33.4852 54.1535 33.4852C55.4434 33.4852 56.4996 32.4391 56.4996 31.1391C56.4996 30.0219 55.6973 29.0773 54.6512 28.8437V26.3047C54.6512 25.5023 54.0012 24.8523 53.1989 24.8523H49.634C49.3598 24.8523 49.1364 25.0758 49.1364 25.35C49.1364 25.6242 49.3598 25.8477 49.634 25.8477H53.1989C53.4528 25.8477 53.6559 26.0508 53.6559 26.3047V28.8437C52.6098 29.0773 51.8074 30.0219 51.8074 31.1391ZM16.4332 13.0508V15.6C16.4332 16.4023 17.0832 17.0523 17.8856 17.0523H21.6434C21.9176 17.0523 22.141 16.8289 22.141 16.5547C22.141 16.2805 21.9176 16.057 21.6434 16.057H17.8856C17.6317 16.057 17.4285 15.8539 17.4285 15.6V13.0609C18.4746 12.8273 19.2668 11.8828 19.2668 10.7656C19.2668 9.47578 18.2207 8.41953 16.9309 8.41953C15.6309 8.41953 14.5848 9.47578 14.5848 10.7656C14.5949 11.8828 15.377 12.8273 16.4332 13.0508ZM16.941 33.4852C18.2309 33.4852 19.277 32.4391 19.277 31.1391C19.277 30.0219 18.4848 29.0773 17.4387 28.8437V26.3047C17.4387 26.0508 17.6418 25.8477 17.8957 25.8477H21.6535C21.9278 25.8477 22.1512 25.6242 22.1512 25.35C22.1512 25.0758 21.9278 24.8523 21.6535 24.8523H17.8957C17.0934 24.8523 16.4434 25.5023 16.4434 26.3047V28.8539C15.3871 29.0773 14.6051 30.0219 14.6051 31.1391C14.5949 32.4391 15.641 33.4852 16.941 33.4852Z" fill="white"/>
<path d="M16.941 23.1562C18.0582 23.1562 19.0028 22.3641 19.2262 21.3078H21.6637V22.9633C21.6637 23.3187 21.9582 23.6133 22.3035 23.6133H24.2637C24.5481 24.832 25.0254 25.9898 25.6856 27.0461L24.3043 28.4375C24.0606 28.6812 24.0606 29.0875 24.3043 29.3414L27.1582 32.1953C27.402 32.4391 27.8082 32.4391 28.0621 32.1953L29.4434 30.8141C30.5098 31.4641 31.6676 31.9516 32.8863 32.2359V34.1859C32.8863 34.5414 33.1707 34.8359 33.5262 34.8359H34.9074V37.2633C33.8613 37.4969 33.059 38.4414 33.059 39.5586C33.059 40.8586 34.1152 41.9047 35.4051 41.9047C36.6949 41.9047 37.7512 40.8586 37.7512 39.5586C37.7512 38.4414 36.9488 37.4969 35.9028 37.2633V34.8359H37.5582C37.9137 34.8359 38.1981 34.5414 38.1981 34.1859V32.2359C39.427 31.9516 40.5746 31.4742 41.641 30.8141L43.0223 32.1953C43.2762 32.4391 43.6824 32.4391 43.9363 32.1953L46.7801 29.3414C47.034 29.0875 47.034 28.6812 46.7801 28.4375L45.3988 27.0461C46.059 25.9898 46.5363 24.832 46.8207 23.6133H48.7809C49.1363 23.6133 49.4207 23.3187 49.4207 22.9633V21.3078H51.8582C52.0918 22.3641 53.0363 23.1562 54.1535 23.1562C55.4434 23.1562 56.4996 22.1102 56.4996 20.8102C56.4996 19.5203 55.4434 18.4742 54.1535 18.4742C53.0363 18.4742 52.0918 19.2562 51.8684 20.3125H49.4207V18.9414C49.4207 18.5859 49.1363 18.2914 48.7809 18.2914H46.8207C46.5363 17.0727 46.059 15.9148 45.3988 14.8586L46.7801 13.4773C46.902 13.3555 46.9731 13.193 46.9731 13.0203C46.9731 12.8477 46.902 12.6852 46.7801 12.5633L43.9363 9.70937C43.8145 9.59766 43.652 9.54687 43.4793 9.52656C43.3067 9.52656 43.1442 9.59766 43.0223 9.70937L41.641 11.1008C40.5746 10.4406 39.427 9.96328 38.1981 9.6789V7.71875C38.1981 7.36328 37.9137 7.06875 37.5582 7.06875H35.9028V4.64141C36.9488 4.40781 37.7512 3.46328 37.7512 2.34609C37.7512 1.05625 36.6949 0 35.4051 0C34.1152 0 33.059 1.05625 33.059 2.34609C33.059 3.46328 33.8613 4.40781 34.9074 4.64141V7.06875H33.5262C33.1707 7.06875 32.8863 7.36328 32.8863 7.71875V9.6789C31.6676 9.96328 30.5098 10.4406 29.4535 11.1008L28.0621 9.70937C27.8184 9.46562 27.402 9.46562 27.1582 9.70937L24.3043 12.5633C24.0504 12.8172 24.0504 13.2234 24.3043 13.4773L25.6856 14.8586C25.0254 15.925 24.5481 17.0727 24.2637 18.2914H22.3035C21.9582 18.2914 21.6637 18.5859 21.6637 18.9414V20.3125H19.216C18.9926 19.2562 18.0582 18.4742 16.941 18.4742C15.641 18.4742 14.5949 19.5203 14.5949 20.8102C14.5949 22.1102 15.641 23.1562 16.941 23.1562ZM28.4887 20.9523C28.4887 17.0625 31.6473 13.8937 35.5473 13.8937C39.4371 13.8937 42.6059 17.0625 42.6059 20.9523C42.6059 24.8422 39.4371 28.0109 35.5473 28.0109C31.6473 28.0109 28.4887 24.8422 28.4887 20.9523Z" fill="white"/>
</svg>
