<svg width="178" height="33" viewBox="0 0 178 33" fill="none" xmlns="http://www.w3.org/2000/svg">
<path d="M18.0889 1.10451C14.3723 4.85345 10.9318 8.34166 7.48622 11.8128C5.16017 14.1542 5.13972 14.8188 7.3959 17.2658C9.3658 19.3976 9.08804 21.0863 6.5541 22.5143C6.26952 22.6745 6.0531 22.7683 5.79579 22.5143C3.4101 20.1065 0.550684 18.002 0.923873 13.9719C1.13177 11.7362 2.17125 10.0185 3.79351 8.6092C4.62169 7.89009 4.58249 7.40613 3.78158 6.69383C2.6143 5.65436 1.56631 4.47855 0.434808 3.40158C-0.103676 2.89037 -0.178655 2.50695 0.417767 2.00085C1.01419 1.49474 1.46406 0.905134 2.05878 0.451853C2.89377 -0.185466 3.77818 -0.144569 4.59272 0.548985C4.85685 0.773921 5.09031 1.03464 5.3391 1.27662C6.25418 2.16273 7.06361 3.56688 8.11842 3.7833C9.17324 3.99971 9.88383 2.36892 10.7529 1.55949C11.3016 1.04827 11.9117 1.12325 12.5354 1.12155C14.2701 1.1011 16.0031 1.10451 18.0889 1.10451Z" fill="url(#paint0_linear_1644_714)"/>
<path d="M1.54074 32.8921C4.79891 29.6169 7.68389 26.7149 10.5723 23.8146C11.3476 23.0341 12.1468 22.2809 12.9068 21.4783C14.2888 20.0333 14.2854 18.8455 12.929 17.4073C12.7705 17.2369 12.6103 17.0665 12.4382 16.9148C9.55324 14.3332 10.8943 13.7981 13.0585 11.5879C13.5697 11.0631 13.8628 11.4755 14.1883 11.8027C15.1681 12.7893 16.2059 13.7265 17.1159 14.7745C19.4436 17.4567 19.4129 21.7169 16.9557 24.3258C14.3996 27.037 11.7174 29.6186 9.09315 32.2633C8.76426 32.6041 8.46094 32.9058 7.92757 32.9007C5.97471 32.8802 4.02186 32.8921 1.54074 32.8921Z" fill="url(#paint1_linear_1644_714)"/>
<path d="M32.1394 25.2051C30.8969 24.5103 29.8918 23.4581 29.2546 22.185C28.5587 20.7335 28.2193 19.1369 28.2644 17.5278V11.0948C28.2193 9.48575 28.5587 7.88913 29.2546 6.43761C29.8932 5.16302 30.8977 4.108 32.1394 3.4076C33.4954 2.67268 35.0204 2.30623 36.5623 2.3448C37.8932 2.32601 39.2082 2.63549 40.391 3.24587C41.5464 3.85904 42.5275 4.755 43.2428 5.85009C44.0349 7.06778 44.5655 8.43677 44.8007 9.87028H40.8399C40.6675 9.15614 40.3557 8.48311 39.9223 7.88989C39.5253 7.34578 39.0079 6.90072 38.4106 6.58943C37.8352 6.28889 37.195 6.13365 36.5458 6.13725C35.734 6.11589 34.9328 6.32534 34.2353 6.74126C33.5767 7.155 33.0526 7.75132 32.7269 8.4576C32.3538 9.28674 32.1722 10.1892 32.1955 11.0981V17.5311C32.1739 18.4345 32.3555 19.3313 32.7269 20.1551C33.0501 20.8613 33.5749 21.4562 34.2353 21.8649C34.9342 22.2768 35.7348 22.4838 36.5458 22.4623C37.1975 22.4685 37.8414 22.3192 38.4238 22.0266C39.0128 21.7228 39.5235 21.2867 39.9157 20.7525C40.3538 20.1519 40.6608 19.466 40.8168 18.7391H44.7776C44.5385 20.1716 44.0107 21.5405 43.2263 22.7626C42.5099 23.858 41.5276 24.7539 40.3712 25.3669C39.1938 25.976 37.8845 26.2855 36.559 26.2679C35.0184 26.3045 33.4949 25.9382 32.1394 25.2051Z" fill="white"/>
<path d="M52.6764 19.4619C52.6501 19.8777 52.7066 20.2945 52.8426 20.6883C52.9786 21.0821 53.1913 21.4449 53.4685 21.7559C53.7623 22.038 54.1114 22.2562 54.4937 22.3965C54.8761 22.5368 55.2834 22.5963 55.6899 22.5711C56.6471 22.5711 57.3831 22.3159 57.898 21.8054C58.4129 21.2949 58.6715 20.561 58.6737 19.6038L58.8981 23.1818C58.5769 24.0495 58.0189 24.8099 57.2874 25.3767C56.4976 25.9794 55.5244 26.2918 54.5314 26.2613C52.716 26.2613 51.311 25.676 50.3164 24.5053C49.3218 23.3347 48.8245 21.6844 48.8245 19.5543V9.28931H52.6764V19.4619ZM58.6737 9.28931H62.5057V26.0203H58.6737V9.28931Z" fill="white"/>
<path d="M67.1827 9.28932H71.1963V26.0203H67.1827V9.28932ZM75.5466 12.9563C75.1238 12.8026 74.6761 12.7287 74.2263 12.7385C73.8116 12.7139 73.3965 12.7784 73.0088 12.9276C72.6211 13.0767 72.2698 13.3071 71.9786 13.6033C71.4155 14.269 71.1307 15.126 71.1831 15.9962L70.853 12.2071C71.2789 11.2891 71.9308 10.4941 72.7476 9.89664C73.494 9.35221 74.395 9.06076 75.3188 9.06488C75.9933 9.05665 76.6639 9.16841 77.2992 9.39494C77.8792 9.61228 78.4067 9.94972 78.8472 10.3851L76.4939 13.6231C76.2343 13.3302 75.9099 13.1019 75.5466 12.9563Z" fill="white"/>
<path d="M83.9102 25.4031C82.8097 24.8412 81.9137 23.9475 81.3489 22.8484C80.7258 21.5856 80.421 20.1895 80.4611 18.782V16.894C80.4224 15.4303 80.7158 13.9768 81.3192 12.6427C81.8414 11.5157 82.7037 10.5807 83.7848 9.96921C84.9791 9.3271 86.3209 9.00958 87.6763 9.04833C88.9809 9.01245 90.2637 9.38772 91.3433 10.121C92.4046 10.9028 93.2089 11.9829 93.6538 13.2237C94.2223 14.7925 94.4932 16.4536 94.4525 18.1218V19.2176H83.0884V16.3989H90.8911L90.8746 16.2206C90.7646 15.05 90.4345 14.1423 89.8844 13.4976C89.6138 13.1795 89.2744 12.9271 88.8918 12.7595C88.5093 12.5919 88.0936 12.5136 87.6763 12.5305C86.5145 12.5305 85.6167 12.8925 84.983 13.6164C84.3492 14.3404 84.0324 15.3702 84.0324 16.7058V18.8315C84.0324 20.0989 84.3624 21.0759 85.0655 21.7558C85.7685 22.4358 86.7158 22.779 87.9668 22.779C88.6056 22.7806 89.2391 22.663 89.8349 22.4325C90.4445 22.1942 91.0084 21.8525 91.5017 21.4225L94.0168 23.7758C93.1834 24.5602 92.2136 25.1855 91.1552 25.6209C90.1429 26.0494 89.056 26.2737 87.9568 26.281C86.5569 26.3191 85.1685 26.0179 83.9102 25.4031Z" fill="white"/>
<path d="M99.143 2.58586H101.453V26.0205H99.143V2.58586ZM101.074 23.8619H107.507C109.487 23.8619 110.935 23.4878 111.85 22.7396C112.766 21.9915 113.219 20.9419 113.21 19.5908V19.5413C113.223 18.7137 113.04 17.8948 112.676 17.1516C112.326 16.4775 111.765 15.937 111.078 15.6135C110.2 15.2219 109.243 15.0367 108.282 15.0722H101.057V12.9136H108.296C109.821 12.9136 110.967 12.5747 111.735 11.897C112.503 11.2193 112.887 10.2148 112.887 8.88351C112.887 7.49724 112.469 6.46083 111.633 5.77429C110.796 5.08776 109.533 4.74449 107.843 4.74449H101.057V2.58256H108.358C109.67 2.53866 110.974 2.80439 112.164 3.35821C113.139 3.82911 113.939 4.59626 114.451 5.54985C114.981 6.59727 115.242 7.75982 115.211 8.93302C115.214 9.70687 115.054 10.4728 114.742 11.1808C114.424 11.8946 113.934 12.5183 113.316 12.9961C112.62 13.5254 111.803 13.8736 110.939 14.0094C111.829 14.128 112.673 14.4748 113.389 15.0161C114.068 15.5378 114.61 16.2176 114.966 16.9965C115.335 17.8066 115.522 18.6876 115.514 19.5776V19.6238C115.539 20.7965 115.25 21.9545 114.676 22.9773C114.116 23.946 113.281 24.7262 112.276 25.2184C111.145 25.7624 109.901 26.0326 108.646 26.0073H101.057L101.074 23.8619Z" fill="white"/>
<path d="M118.336 9.28931H120.722L126.218 24.8024L125.007 27.3835L118.336 9.28931ZM133.146 9.28931L126.023 29.9349C125.818 30.6057 125.471 31.2247 125.007 31.7503C124.584 32.1986 124.052 32.5286 123.462 32.7074C122.728 32.9178 121.967 33.0158 121.204 32.9979H120.544V30.8063H121.204C121.936 30.8441 122.659 30.6374 123.261 30.2187C123.875 29.6752 124.331 28.9763 124.581 28.1954L130.77 9.28931H133.146Z" fill="white"/>
<path d="M135.08 9.28948H142.622V11.2897H135.08V9.28948ZM137.76 24.9808C137.133 24.2348 136.82 23.1346 136.82 21.6801V4.42432H139.13V21.6999C139.094 22.2893 139.264 22.873 139.612 23.3503C139.791 23.5498 140.014 23.7059 140.263 23.8065C140.512 23.9072 140.78 23.9498 141.048 23.9312H142.626V26.0898H140.731C139.371 26.0964 138.381 25.7267 137.76 24.9808Z" fill="white"/>
<path d="M150.019 25.3835C148.937 24.8126 148.061 23.9168 147.514 22.8222C146.909 21.5586 146.614 20.1693 146.652 18.769V16.881C146.613 15.4241 146.897 13.9766 147.484 12.6429C147.989 11.5231 148.83 10.5885 149.89 9.96941C151.054 9.328 152.368 9.01002 153.696 9.04854C154.95 9.01125 156.189 9.32445 157.274 9.95291C158.283 10.5787 159.074 11.5009 159.538 12.5934C160.091 13.9108 160.358 15.3306 160.32 16.7589V18.6765H148.23V16.5806H158.159V16.4222C158.159 14.7653 157.769 13.4835 156.99 12.5769C156.211 11.6704 155.111 11.2171 153.689 11.2171C152.132 11.2171 150.928 11.6946 150.079 12.6495C149.229 13.6045 148.804 14.9589 148.804 16.7127V18.8383C148.804 20.515 149.256 21.8122 150.158 22.7297C151.06 23.6473 152.334 24.1072 153.98 24.1094C154.775 24.1073 155.561 23.9422 156.29 23.6242C157.046 23.303 157.732 22.8377 158.31 22.2544L159.875 23.7529C159.074 24.5359 158.134 25.1618 157.102 25.598C156.116 26.0266 155.052 26.2512 153.977 26.2581C152.606 26.2967 151.246 25.9962 150.019 25.3835Z" fill="white"/>
<path d="M167.958 25.9939C167.138 25.8278 166.341 25.5664 165.582 25.215C164.877 24.8907 164.219 24.4733 163.625 23.9739L164.961 22.3467C165.842 22.9407 166.795 23.4199 167.797 23.7726C168.692 24.0944 169.634 24.265 170.586 24.2776C172.185 24.2776 173.424 24.0036 174.302 23.4557C174.711 23.226 175.049 22.8898 175.282 22.483C175.514 22.0761 175.632 21.6138 175.622 21.1453C175.646 20.8404 175.601 20.5341 175.492 20.2487C175.382 19.9632 175.21 19.7057 174.989 19.495C174.527 19.1144 173.974 18.8597 173.385 18.7556C172.494 18.5939 171.595 18.4836 170.691 18.4255C170.586 18.4255 170.473 18.4057 170.361 18.4024C170.249 18.3991 170.14 18.4024 170.031 18.376C169.988 18.3793 169.945 18.3793 169.902 18.376H169.774C168.837 18.2999 167.909 18.1386 167.001 17.8941C166.273 17.688 165.624 17.2669 165.14 16.6861C164.642 16.0942 164.392 15.2393 164.39 14.1215C164.361 13.1493 164.634 12.192 165.173 11.3819C165.745 10.5916 166.542 9.99139 167.46 9.65901C168.622 9.23248 169.854 9.02978 171.091 9.06159C171.827 9.06195 172.561 9.13492 173.282 9.27943C174.003 9.42185 174.708 9.63296 175.388 9.90986C176.037 10.1727 176.655 10.5047 177.233 10.9001L175.893 12.4943C175.113 12.0381 174.281 11.6789 173.414 11.4249C172.63 11.1831 171.815 11.0552 170.995 11.0453C169.589 11.0453 168.498 11.3082 167.724 11.8341C167.354 12.0727 167.053 12.4031 166.849 12.793C166.646 13.183 166.547 13.6191 166.562 14.0588C166.542 14.3396 166.589 14.6212 166.698 14.8805C166.808 15.1398 166.977 15.3695 167.193 15.5507C167.657 15.9013 168.204 16.1284 168.78 16.2108C169.655 16.3437 170.537 16.4296 171.421 16.4683H171.559C171.604 16.4715 171.65 16.4715 171.695 16.4683H171.757C171.79 16.4633 171.824 16.4633 171.856 16.4683C172.866 16.5099 173.868 16.6559 174.847 16.9039C175.659 17.1236 176.382 17.5908 176.916 18.2407C177.475 18.9008 177.755 19.8624 177.755 21.1255C177.783 22.1161 177.489 23.0893 176.916 23.898C176.29 24.7099 175.438 25.3185 174.467 25.6474C173.218 26.0782 171.903 26.2827 170.582 26.2514C169.701 26.2566 168.822 26.1703 167.958 25.9939Z" fill="white"/>
<defs>
<linearGradient id="paint0_linear_1644_714" x1="0.000271734" y1="11.3255" x2="18.0889" y2="11.3255" gradientUnits="userSpaceOnUse">
<stop stop-color="#451ADB"/>
<stop offset="1" stop-color="#1BD4F0"/>
</linearGradient>
<linearGradient id="paint1_linear_1644_714" x1="1.54074" y1="22.1191" x2="18.8302" y2="22.1191" gradientUnits="userSpaceOnUse">
<stop stop-color="#451ADB"/>
<stop offset="1" stop-color="#1BD4F0"/>
</linearGradient>
</defs>
</svg>
