<svg width="98" height="113" viewBox="0 0 98 113" fill="none" xmlns="http://www.w3.org/2000/svg">
<path d="M43.7157 3.11961L4.84275 26.5193C1.83767 28.3282 0 31.5793 0 35.0868V77.6446C0 81.2902 1.98396 84.647 5.17772 86.405L46.6032 109.208C49.7787 110.956 53.6516 110.849 56.7254 108.928L92.6218 86.4924C95.5456 84.665 97.3218 81.4603 97.3218 78.0124V35.0584C97.3218 31.5662 95.5001 28.3271 92.516 26.5132L54.0672 3.14197C50.8893 1.21028 46.9019 1.20166 43.7157 3.11961Z" fill="#FDF3F1"/>
<g clip-path="url(#clip0_9041_2144)">
<path d="M42.4746 33.1074C44.6019 32.0887 46.953 31.6262 49.3076 31.7627C51.662 31.8992 53.9434 32.6302 55.9385 33.8877C57.9337 35.1454 59.5781 36.8895 60.7168 38.9551C61.8553 41.0205 62.4519 43.3408 62.4502 45.6992V45.7002C62.4515 47.7858 61.9832 49.8452 61.0811 51.7256C60.1789 53.6059 58.8659 55.2594 57.2383 56.5635L56.21 57.3867L57.4434 57.8506C65.9152 61.0342 71.9633 68.7831 72.2393 79.25H68.8379C68.6652 73.2815 66.431 68.4435 62.8691 65.0625C59.1652 61.5468 54.0731 59.6494 48.5 59.6494C42.9269 59.6494 37.8348 61.5468 34.1309 65.0625C30.569 68.4435 28.3348 73.2815 28.1621 79.25H24.7607C25.0367 68.7831 31.0848 61.0342 39.5566 57.8506L40.7881 57.3877L39.7627 56.5645C37.9241 55.0872 36.4902 53.1673 35.5947 50.9854C34.6993 48.8033 34.3717 46.4299 34.6426 44.0869C34.9135 41.744 35.7738 39.508 37.1436 37.5879C38.5133 35.6678 40.3474 34.1261 42.4746 33.1074ZM48.5 35.1494C42.6811 35.1494 37.9502 39.8813 37.9502 45.7002C37.9504 51.519 42.6812 56.25 48.5 56.25C54.3188 56.25 59.0496 51.519 59.0498 45.7002C59.0498 39.8813 54.3189 35.1494 48.5 35.1494Z" fill="#F3436A" stroke="#FDF3F1" stroke-width="1.5"/>
<g clip-path="url(#clip1_9041_2144)">
<path d="M76.4032 28.7519C72.5128 26.5057 68.0834 28.1468 65.8384 32.0354C63.2905 36.4484 66.4114 45.2803 69.6606 51.8501C76.9766 51.3801 86.1628 49.5409 88.7336 45.2539C91.0431 41.4026 90.3435 36.8003 86.4531 34.5542C84.7931 33.5958 82.6024 33.5014 79.8255 34.244C79.0801 31.4678 78.0631 29.7102 76.4032 28.7519Z" stroke="#F3436A" stroke-width="1.8"/>
</g>
</g>
<defs>
<clipPath id="clip0_9041_2144">
<rect width="85" height="60" fill="white" transform="translate(6 26)"/>
</clipPath>
<clipPath id="clip1_9041_2144">
<rect width="34" height="34" fill="white" transform="translate(69.7773 18.7773) rotate(30)"/>
</clipPath>
</defs>
</svg>
