<svg width="98" height="113" viewBox="0 0 98 113" fill="none" xmlns="http://www.w3.org/2000/svg">
<path d="M43.7157 3.11961L4.84275 26.5193C1.83767 28.3282 0 31.5793 0 35.0868V77.6446C0 81.2902 1.98396 84.647 5.17772 86.405L46.6032 109.208C49.7787 110.956 53.6516 110.849 56.7254 108.928L92.6218 86.4924C95.5456 84.665 97.3218 81.4603 97.3218 78.0124V35.0584C97.3218 31.5662 95.5001 28.3271 92.516 26.5132L54.0672 3.14197C50.8893 1.21028 46.9019 1.20166 43.7157 3.11961Z" fill="#FDF3F1"/>
<path d="M39.0225 70.2314H46.3975C49.6481 70.2316 52.293 72.8773 52.293 76.1279C52.2928 76.6693 51.854 77.1064 51.3135 77.1064H39.0225C38.482 77.1064 38.0431 76.6693 38.043 76.1279C38.043 75.5864 38.4819 75.1484 39.0225 75.1484H50.2285L50.1104 74.8145C49.5685 73.2876 48.1095 72.1906 46.3975 72.1904H39.0225C38.4819 72.1904 38.043 71.7524 38.043 71.2109C38.043 70.6694 38.4819 70.2314 39.0225 70.2314ZM64.2197 27.2109C66.4538 27.2109 68.2723 29.0286 68.2725 31.2627V40.8135C68.2725 41.1768 68.0711 41.5094 67.75 41.6787V41.6797C67.6063 41.7559 67.4498 41.793 67.293 41.793C67.0993 41.793 66.9065 41.7355 66.7412 41.6221V41.6211L60.5947 37.418V37.417L60.5 37.3438C60.2905 37.1596 60.1681 36.893 60.168 36.6104V31.2627C60.1681 29.0287 61.9858 27.2111 64.2197 27.2109ZM64.2197 29.1689C63.0654 29.1691 62.1262 30.1084 62.126 31.2627V36.0938L62.2354 36.1689L65.9229 38.6904L66.3135 38.958V31.2627C66.3133 30.1083 65.3742 29.1689 64.2197 29.1689Z" fill="#F3436A" stroke="#FDF3F1" stroke-width="0.5"/>
<path d="M61.7031 70.8896C62.8769 70.3546 64.2248 70.4525 65.3086 71.1523H65.3096C66.3957 71.85 67.043 73.0359 67.043 74.3262C67.0429 75.8038 66.1736 77.154 64.8301 77.7637H64.8291L52.9482 83.165H52.9473C52.8213 83.2232 52.6837 83.2529 52.543 83.2529H39.0225C38.4819 83.2529 38.043 82.8149 38.043 82.2734C38.0432 81.7321 38.482 81.2949 39.0225 81.2949H52.3301L52.3799 81.2725L64.0186 75.9824V75.9814C64.6671 75.6864 65.0849 75.0374 65.085 74.3262C65.085 73.698 64.7799 73.1377 64.251 72.7979C63.7232 72.4579 63.0877 72.4128 62.5146 72.6709L62.5137 72.6719L52.9473 77.0186L52.9453 77.0195C52.8211 77.0773 52.6838 77.1074 52.543 77.1074H48.8555C48.3149 77.1074 47.876 76.6694 47.876 76.1279C47.876 75.5865 48.3149 75.1484 48.8555 75.1484H52.3301L52.3799 75.126L61.7031 70.8896Z" fill="#F3436A" stroke="#FDF3F1" stroke-width="0.5"/>
<path d="M26.7305 67.7734H39.0225C39.5629 67.7734 40.0018 68.2106 40.002 68.752V84.7314C40.002 85.2729 39.5631 85.7109 39.0225 85.7109H26.7305C26.19 85.7108 25.752 85.2728 25.752 84.7314V68.752C25.7521 68.2107 26.1901 67.7736 26.7305 67.7734ZM27.71 83.752H38.043V69.7314H27.71V83.752ZM48.3027 27.3818C48.6369 27.1537 49.0767 27.154 49.4092 27.3818L71.6572 42.6113L71.6582 42.6123C72.6154 43.2613 73.1895 44.345 73.1895 45.5088C73.1894 47.4515 71.6087 49.032 69.666 49.0322C69.0656 49.0322 68.4679 48.8692 67.9219 48.5537L67.6914 48.4092L48.9971 35.6182L48.8555 35.5215L48.7148 35.6182L30.0234 48.4062C28.9445 49.1465 27.5552 49.2275 26.3984 48.6182C25.2407 48.0088 24.5225 46.8173 24.5225 45.5088C24.5225 44.3451 25.0964 43.2609 26.0576 42.6094H26.0586L48.3027 27.3818ZM48.7148 29.4736L27.1611 44.2266C26.7394 44.5137 26.4805 45.0016 26.4805 45.5088C26.4805 46.0957 26.7931 46.6126 27.3115 46.8857C27.8285 47.1573 28.4314 47.1233 28.917 46.791L48.3037 33.5283L48.3047 33.5273C48.4688 33.4137 48.6622 33.3565 48.8555 33.3564C49.0489 33.3564 49.243 33.4137 49.4072 33.5273L49.4082 33.5283L68.792 46.791L68.7939 46.792C69.2854 47.1221 69.8918 47.1386 70.376 46.9053C70.8667 46.6688 71.2305 46.176 71.2305 45.5088C71.2305 45.0021 70.9723 44.5143 70.5547 44.2305H70.5557L48.9971 29.4736L48.8555 29.377L48.7148 29.4736Z" fill="#F3436A" stroke="#FDF3F1" stroke-width="0.5"/>
<path d="M43.1495 44.0028C38.6572 44.0028 35.6418 47.6387 35.6418 52.1288C35.6418 57.2246 42.7606 63.3127 48.8593 67.3778C54.9602 63.3127 61.9961 57.1268 62.079 52.1288C62.1533 47.6387 59.2463 44.0028 54.7541 44.0028C52.8373 44.0028 50.893 45.0164 48.8593 47.0479C46.8257 45.0164 45.0662 44.0028 43.1495 44.0028Z" stroke="#F3436A" stroke-width="1.5"/>
</svg>
