<svg width="235" height="69" viewBox="0 0 235 69" fill="none" xmlns="http://www.w3.org/2000/svg">
<path d="M0 35.4847C0 26.882 5.04408 21.6 12.6832 21.6C20.3224 21.6 25.3664 26.857 25.3664 35.4847C25.3664 44.1123 20.3715 49.3443 12.6832 49.3443C4.99488 49.3443 0 44.1373 0 35.4847ZM19.1125 35.4847C19.1125 29.8241 16.5912 26.5802 12.6848 26.5802C8.77832 26.5802 6.25705 29.8257 6.25705 35.4847C6.25705 41.1436 8.77832 44.3892 12.6848 44.3892C16.5912 44.3892 19.1125 41.1686 19.1125 35.4847ZM28.4611 46.0237V24.7924C28.4611 22.856 29.5742 21.6235 31.4036 21.6235C33.2331 21.6235 34.4445 22.856 34.4445 24.7924V26.6537H34.5675C35.9773 23.4848 38.6969 21.6485 42.7263 21.6485C48.5114 21.6485 51.7998 25.4212 51.7998 31.5853V46.0237C51.7998 48.1368 50.5392 49.3193 48.7343 49.3193C46.9294 49.3193 45.6442 48.1368 45.6442 46.0237V32.8429C45.6442 29.0702 43.9131 26.9571 40.4033 26.9571C36.8936 26.9571 34.6183 29.5473 34.6183 33.3715V46.0237C34.6183 48.1368 33.333 49.3193 31.5282 49.3193C29.7233 49.3193 28.4627 48.1368 28.4627 46.0237H28.4611ZM116.982 55.765C116.982 57.9563 115.571 62.4954 106.116 65.4547C100.44 67.2299 93.0026 68.2091 85.1712 68.2091C77.3399 68.2091 69.9007 67.2315 64.2247 65.4547C54.77 62.4969 53.3587 57.9563 53.3587 55.765C53.3587 53.5736 54.77 49.4553 64.2247 46.4976C65.8036 46.0033 67.5208 45.5732 69.3441 45.2072C70.2112 45.0336 71.109 45.2932 71.7624 45.897L72.5557 46.6305C73.0922 47.1264 72.8724 48.0289 72.1713 48.2134C66.3048 49.765 65.4285 51.9251 65.4285 53.0747C65.4285 54.2243 66.3048 56.3844 72.1713 57.936C75.6934 58.8682 80.3101 59.3812 85.1697 59.3812C90.0293 59.3812 94.646 58.8682 98.1681 57.936C104.035 56.3844 104.911 54.2243 104.911 53.0747C104.911 51.9251 104.035 49.765 98.1681 48.2134C97.4547 48.0257 97.2318 47.106 97.7776 46.6024L98.5478 45.8907C99.2012 45.287 100.099 45.0273 100.966 45.2009C102.8 45.5685 104.53 46.0018 106.118 46.4976C115.573 49.4553 116.984 53.5736 116.984 55.765H116.982ZM112.23 28.6182L108.455 32.4597L87.8678 53.4047C86.3673 54.9313 83.9337 54.9313 82.4332 53.4047L61.848 32.4597L58.0722 28.6182C51.6384 22.0693 51.6384 11.4552 58.0722 4.90936C64.5061 -1.63645 74.9386 -1.63645 81.3755 4.90936L84.3703 7.95626C84.8007 8.39421 85.5002 8.39421 85.9307 7.95626L88.9255 4.90936C95.3624 -1.63645 105.795 -1.63645 112.229 4.90936C118.663 11.4552 118.663 22.0693 112.229 28.6182H112.23ZM104.021 12.0933C103.698 11.9041 103.349 11.7602 102.986 11.6695C101.377 11.2628 99.7777 11.7273 98.6631 12.8613L85.365 26.3909L80.8882 21.8346C79.772 20.7007 78.1747 20.2361 76.5651 20.6428C76.2038 20.7335 75.8533 20.8774 75.5305 21.0667C72.8401 22.6464 72.5111 26.2204 74.5435 28.2882L83.2419 37.1379C84.4149 38.3313 86.3166 38.3313 87.4896 37.1379L105.008 19.3149C107.04 17.2471 106.711 13.6715 104.021 12.0933Z" fill="white"/>
<path d="M117.509 42.6527C117.46 42.4759 117.436 42.2507 117.436 42.074C117.436 41.5203 117.781 41.1684 118.301 41.1684C118.772 41.1684 119.017 41.4702 119.265 42.2007C120.329 45.5463 123.171 47.5327 127.227 47.5327C131.479 47.5327 134.596 45.2945 134.596 42.0239C134.596 39.257 132.964 37.7977 128.835 36.817L125.299 35.9614C120.355 34.804 118.08 32.7159 118.08 29.3452C118.08 25.1941 121.739 22.252 126.981 22.252C131.628 22.252 135.066 24.9188 135.832 28.9182C135.881 29.145 135.905 29.3718 135.905 29.547C135.905 30.1007 135.609 30.4276 135.114 30.4276C134.668 30.4276 134.397 30.2008 134.174 29.4469C133.309 26.3781 130.986 23.9381 126.881 23.9381C122.776 23.9381 119.983 26.1763 119.983 29.2701C119.983 31.7852 121.714 33.2696 125.817 34.2503L129.353 35.1058C134.52 36.3384 136.523 38.2497 136.523 41.8972C136.523 46.2236 132.666 49.2173 127.104 49.2173C122.209 49.2173 118.426 46.6021 117.511 42.6527H117.509ZM138.628 35.7862C138.628 27.5105 143.079 22.2535 149.952 22.2535C154.724 22.2535 158.754 25.0204 159.891 29.1716C159.965 29.3984 160.014 29.6752 160.014 29.8754C160.014 30.4041 159.693 30.756 159.173 30.756C158.704 30.756 158.457 30.5042 158.259 30.0272C157.121 26.1278 153.857 24.0147 149.975 24.0147C144.215 24.0147 140.556 28.5678 140.556 35.7362C140.556 42.9045 144.19 47.4576 150 47.4576C153.857 47.4576 157.146 45.4196 158.232 41.6219C158.431 41.1183 158.703 40.8931 159.147 40.8931C159.667 40.8931 159.988 41.27 159.988 41.7987C159.988 41.9488 159.964 42.2007 159.865 42.4775C158.752 46.477 154.796 49.2188 150.051 49.2188C143.054 49.2188 138.628 44.0369 138.628 35.7862ZM162.342 35.8613C162.342 27.5606 166.817 22.252 173.617 22.252C180.417 22.252 184.644 27.3087 184.644 34.7039C184.644 35.5594 184.149 36.0615 183.284 36.0615H164.296C164.296 43.2815 168.03 47.4811 173.864 47.4811C178.117 47.4811 181.256 45.368 182.494 41.6955C182.643 41.3435 182.864 41.1167 183.285 41.1167C183.78 41.1167 184.151 41.4687 184.151 41.9973C184.151 42.1725 184.077 42.4744 184.002 42.7012C182.766 46.7006 178.908 49.2157 173.94 49.2157C166.794 49.2157 162.343 44.2606 162.343 35.8582L162.342 35.8613ZM182.666 34.427C182.641 28.2144 179.007 23.9881 173.617 23.9881C168.227 23.9881 164.593 28.1393 164.32 34.427H182.666ZM188.157 48.1631V23.2592C188.157 22.6555 188.528 22.2535 189.047 22.2535C189.567 22.2535 189.962 22.6555 189.962 23.2592V28.341H190.011C191.223 24.6685 194.56 22.2535 198.986 22.2535C204.525 22.2535 208.307 25.9761 208.307 31.8619V48.1615C208.307 48.7903 207.911 49.2173 207.343 49.2173C206.776 49.2173 206.379 48.7903 206.379 48.1615V32.1121C206.379 27.0553 203.214 24.0116 198.542 24.0116C193.449 24.0116 190.087 27.7592 190.087 33.1929V48.1599C190.087 48.7887 189.691 49.2157 189.123 49.2157C188.554 49.2157 188.159 48.7887 188.159 48.1599L188.157 48.1631ZM211.697 35.8613C211.697 27.5606 216.172 22.252 222.972 22.252C229.772 22.252 234 27.3087 234 34.7039C234 35.5594 233.505 36.0615 232.639 36.0615H213.651C213.651 43.2815 217.385 47.4811 223.22 47.4811C227.472 47.4811 230.611 45.368 231.849 41.6955C231.998 41.3435 232.219 41.1167 232.641 41.1167C233.136 41.1167 233.506 41.4687 233.506 41.9973C233.506 42.1725 233.432 42.4744 233.357 42.7012C232.121 46.7006 228.264 49.2157 223.295 49.2157C216.149 49.2157 211.699 44.2606 211.699 35.8582L211.697 35.8613ZM232.021 34.427C231.996 28.2144 228.362 23.9881 222.972 23.9881C217.582 23.9881 213.948 28.1393 213.676 34.427H232.021Z" fill="white" stroke="white" stroke-miterlimit="10"/>
</svg>
