<svg width="22" height="15" viewBox="0 0 22 15" fill="none" xmlns="http://www.w3.org/2000/svg">
<path d="M1.25 6.75H20C20.4322 6.75003 20.75 7.06783 20.75 7.5C20.75 7.93215 20.4321 8.24997 20 8.25H1.25C0.81782 8.25 0.500013 7.93218 0.5 7.5C0.5 7.06781 0.817811 6.75 1.25 6.75ZM1.25 0.5H20C20.4322 0.500034 20.75 0.817834 20.75 1.25C20.75 1.68216 20.4322 1.99997 20 2H1.25C0.817813 2 0.500002 1.68219 0.5 1.25C0.5 0.817811 0.817811 0.5 1.25 0.5Z" fill="white" stroke="white"/>
<path d="M1.25 13.0002H20C20.4322 13.0003 20.75 13.3181 20.75 13.7502C20.75 14.1824 20.4322 14.5002 20 14.5002H1.25C0.817813 14.5002 0.500002 14.1824 0.5 13.7502C0.5 13.3181 0.817811 13.0002 1.25 13.0002Z" fill="white" stroke="white"/>
</svg>
