<svg width="133" height="39" viewBox="0 0 133 39" fill="none" xmlns="http://www.w3.org/2000/svg">
<path d="M0 19.9559C0 15.118 2.8367 12.1475 7.13281 12.1475C11.4289 12.1475 14.2656 15.1039 14.2656 19.9559C14.2656 24.808 11.4566 27.7503 7.13281 27.7503C2.80903 27.7503 0 24.822 0 19.9559ZM10.7485 19.9559C10.7485 16.7726 9.33058 14.9482 7.13368 14.9482C4.93677 14.9482 3.51885 16.7734 3.51885 19.9559C3.51885 23.1384 4.93677 24.9637 7.13368 24.9637C9.33058 24.9637 10.7485 23.1525 10.7485 19.9559ZM16.006 25.8829V13.9428C16.006 12.8538 16.632 12.1607 17.6608 12.1607C18.6897 12.1607 19.371 12.8538 19.371 13.9428V14.9895H19.4402C20.233 13.2074 21.7624 12.1747 24.0285 12.1747C27.2819 12.1747 29.1313 14.2964 29.1313 17.763V25.8829C29.1313 27.0713 28.4223 27.7363 27.4073 27.7363C26.3923 27.7363 25.6695 27.0713 25.6695 25.8829V18.4702C25.6695 16.3486 24.696 15.1602 22.7221 15.1602C20.7483 15.1602 19.4687 16.6169 19.4687 18.7676V25.8829C19.4687 27.0713 18.7459 27.7363 17.7309 27.7363C16.7159 27.7363 16.0069 27.0713 16.0069 25.8829H16.006ZM65.7887 31.3612C65.7887 32.5936 64.995 35.1463 59.6779 36.8105C56.4858 37.8089 52.303 38.3596 47.8988 38.3596C43.4946 38.3596 39.3109 37.8098 36.1188 36.8105C30.8016 35.1471 30.008 32.5936 30.008 31.3612C30.008 30.1289 30.8016 27.8128 36.1188 26.1494C37.0068 25.8714 37.9725 25.6296 38.9979 25.4237C39.4855 25.3261 39.9904 25.4721 40.3579 25.8116L40.804 26.2242C41.1057 26.503 40.9821 27.0106 40.5879 27.1144C37.2886 27.987 36.7958 29.2017 36.7958 29.8483C36.7958 30.4948 37.2886 31.7096 40.5879 32.5821C42.5686 33.1064 45.165 33.3949 47.8979 33.3949C50.6309 33.3949 53.2272 33.1064 55.208 32.5821C58.5072 31.7096 59 30.4948 59 29.8483C59 29.2017 58.5072 27.987 55.208 27.1144C54.8068 27.0088 54.6814 26.4916 54.9884 26.2083L55.4215 25.8081C55.789 25.4686 56.2939 25.3226 56.7815 25.4202C57.813 25.6269 58.7856 25.8706 59.6787 26.1494C64.9959 27.8128 65.7896 30.1289 65.7896 31.3612H65.7887ZM63.1163 16.0944L60.9929 18.2547L49.4153 30.0339C48.5714 30.8924 47.2028 30.8924 46.359 30.0339L34.7822 18.2547L32.6588 16.0944C29.0405 12.4114 29.0405 6.44219 32.6588 2.76094C36.277 -0.920312 42.1441 -0.920312 45.7641 2.76094L47.4483 4.47446C47.6904 4.72075 48.0838 4.72075 48.3259 4.47446L50.0101 2.76094C53.6301 -0.920312 59.4972 -0.920312 63.1154 2.76094C66.7337 6.44219 66.7337 12.4114 63.1154 16.0944H63.1163ZM58.4994 6.80108C58.3179 6.69464 58.1216 6.61372 57.9176 6.5627C57.0124 6.33399 56.1132 6.59524 55.4864 7.23297L48.0077 14.8418L45.4901 12.2794C44.8624 11.6417 43.9641 11.3804 43.0588 11.6091C42.8557 11.6601 42.6585 11.7411 42.477 11.8475C40.964 12.7359 40.7789 14.7459 41.9219 15.9088L46.8137 20.8857C47.4734 21.5569 48.5429 21.5569 49.2026 20.8857L59.0545 10.8623C60.1975 9.69946 60.0125 7.68862 58.4994 6.80108Z" fill="#D50133"/>
<path d="M66.0854 23.9877C66.0578 23.8883 66.0439 23.7616 66.0439 23.6622C66.0439 23.3508 66.2385 23.1529 66.5307 23.1529C66.7953 23.1529 66.9336 23.3227 67.0728 23.7334C67.6711 25.615 69.2697 26.7321 71.5505 26.7321C73.9419 26.7321 75.6944 25.4733 75.6944 23.634C75.6944 22.078 74.7771 21.2573 72.4548 20.7058L70.4663 20.2246C67.6858 19.5737 66.4062 18.3994 66.4062 16.5038C66.4062 14.1692 68.4639 12.5146 71.4121 12.5146C74.0258 12.5146 75.959 14.0144 76.3896 16.2636C76.4172 16.3912 76.4311 16.5187 76.4311 16.6172C76.4311 16.9286 76.2642 17.1125 75.9858 17.1125C75.7351 17.1125 75.5829 16.9849 75.4575 16.5609C74.9708 14.8351 73.6644 13.4629 71.3559 13.4629C69.0475 13.4629 67.4766 14.7216 67.4766 16.4615C67.4766 17.876 68.4501 18.7108 70.7577 19.2623L72.7462 19.7434C75.6521 20.4366 76.7786 21.5115 76.7786 23.5628C76.7786 25.9958 74.6094 27.6795 71.4813 27.6795C68.7285 27.6795 66.6007 26.2087 66.0863 23.9877H66.0854ZM77.9622 20.1261C77.9622 15.472 80.4652 12.5155 84.3307 12.5155C87.0144 12.5155 89.2805 14.0716 89.9203 16.4061C89.9618 16.5337 89.9894 16.6894 89.9894 16.802C89.9894 17.0993 89.8087 17.2972 89.5165 17.2972C89.2528 17.2972 89.1136 17.1556 89.0021 16.8873C88.3623 14.6944 86.5268 13.506 84.3437 13.506C81.1041 13.506 79.0464 16.0666 79.0464 20.0979C79.0464 24.1293 81.0903 26.6899 84.3575 26.6899C86.5268 26.6899 88.3761 25.5437 88.9874 23.408C89.0989 23.1247 89.252 22.9981 89.5018 22.9981C89.794 22.9981 89.9748 23.2101 89.9748 23.5074C89.9748 23.5918 89.9609 23.7334 89.9056 23.8891C89.2796 26.1384 87.0551 27.6803 84.3861 27.6803C80.4514 27.6803 77.9622 24.7661 77.9622 20.1261ZM91.2984 20.1683C91.2984 15.5001 93.8152 12.5146 97.6393 12.5146C101.463 12.5146 103.841 15.3585 103.841 19.5174C103.841 19.9985 103.563 20.2809 103.076 20.2809H92.3973C92.3973 24.3413 94.4974 26.7031 97.7785 26.7031C100.17 26.7031 101.935 25.5147 102.631 23.4493C102.715 23.2514 102.84 23.1239 103.077 23.1239C103.355 23.1239 103.563 23.3218 103.563 23.6191C103.563 23.7176 103.522 23.8874 103.48 24.0149C102.784 26.2641 100.615 27.6786 97.8208 27.6786C93.8023 27.6786 91.2993 24.8919 91.2993 20.1665L91.2984 20.1683ZM102.728 19.3617C102.714 15.8678 100.671 13.491 97.6393 13.491C94.608 13.491 92.5642 15.8256 92.4111 19.3617H102.728ZM105.817 27.0866V13.0811C105.817 12.7416 106.025 12.5155 106.317 12.5155C106.609 12.5155 106.832 12.7416 106.832 13.0811V15.939H106.859C107.54 13.8737 109.417 12.5155 111.907 12.5155C115.022 12.5155 117.149 14.609 117.149 17.9191V27.0857C117.149 27.4393 116.926 27.6795 116.607 27.6795C116.287 27.6795 116.064 27.4393 116.064 27.0857V18.0598C116.064 15.216 114.284 13.5042 111.657 13.5042C108.792 13.5042 106.902 15.6118 106.902 18.6677V27.0848C106.902 27.4384 106.679 27.6786 106.359 27.6786C106.04 27.6786 105.817 27.4384 105.817 27.0848L105.817 27.0866ZM119.055 20.1683C119.055 15.5001 121.572 12.5146 125.396 12.5146C129.22 12.5146 131.598 15.3585 131.598 19.5174C131.598 19.9985 131.319 20.2809 130.832 20.2809H120.154C120.154 24.3413 122.254 26.7031 125.535 26.7031C127.926 26.7031 129.692 25.5147 130.388 23.4493C130.472 23.2514 130.596 23.1239 130.833 23.1239C131.112 23.1239 131.32 23.3218 131.32 23.6191C131.32 23.7176 131.278 23.8874 131.236 24.0149C130.541 26.2641 128.372 27.6786 125.577 27.6786C121.559 27.6786 119.056 24.8919 119.056 20.1665L119.055 20.1683ZM130.485 19.3617C130.471 15.8678 128.427 13.491 125.396 13.491C122.365 13.491 120.321 15.8256 120.168 19.3617H130.485Z" fill="black" stroke="black" stroke-miterlimit="10"/>
</svg>
