<svg width="46" height="46" viewBox="0 0 46 46" fill="none" xmlns="http://www.w3.org/2000/svg">
<g clip-path="url(#clip0_9041_1729)">
<path d="M21.7515 8.95993C17.709 7.16968 12.9952 8.90515 11.2604 12.8224C10.0873 15.4713 11.0433 18.8779 12.4224 22.5481C13.8015 26.2183 15.746 30.1781 17.1521 33.6559C17.2594 33.9209 17.4687 34.1358 17.7341 34.2534C17.9996 34.3709 18.2994 34.3815 18.5677 34.2828C22.088 32.9867 26.327 31.7654 29.9716 30.3199C33.6162 28.8745 36.7812 27.293 37.9543 24.6441C39.6891 20.7268 37.8062 16.0699 33.7637 14.2797C31.4437 13.2522 28.8893 13.5647 26.315 14.8772C25.5568 12.0889 24.0715 9.98736 21.7515 8.95993Z" fill="white"/>
</g>
<defs>
<clipPath id="clip0_9041_1729">
<rect width="35.0333" height="33.9483" fill="white" transform="translate(13.7466) rotate(23.8866)"/>
</clipPath>
</defs>
</svg>
