<svg width="148" height="112" viewBox="0 0 148 112" fill="none" xmlns="http://www.w3.org/2000/svg">
<g filter="url(#filter0_d_9041_1727)">
<rect x="51.9954" y="3.00354" width="84.08" height="81.4758" rx="40.7379" transform="rotate(23.8866 51.9954 3.00354)" fill="url(#paint0_linear_9041_1727)"/>
<rect x="51.9954" y="3.00354" width="84.08" height="81.4758" rx="40.7379" transform="rotate(23.8866 51.9954 3.00354)" fill="url(#paint1_linear_9041_1727)"/>
</g>
<g clip-path="url(#clip0_9041_1727)">
<path d="M72.801 43.6227C68.7585 41.8324 64.0448 43.5679 62.3099 47.4852C61.1369 50.1341 62.0929 53.5407 63.472 57.2109C64.8511 60.8811 66.7956 64.8408 68.2017 68.3186C68.3089 68.5836 68.5183 68.7985 68.7837 68.9161C69.0491 69.0336 69.349 69.0442 69.6172 68.9455C73.1375 67.6494 77.3765 66.4281 81.0211 64.9827C84.6657 63.5372 87.8308 61.9557 89.0039 59.3068C90.7387 55.3895 88.8558 50.7326 84.8133 48.9424C82.4933 47.915 79.9389 48.2274 77.3646 49.5399C76.6064 46.7516 75.121 44.6501 72.801 43.6227Z" fill="white"/>
</g>
<defs>
<filter id="filter0_d_9041_1727" x="0" y="0" width="147.877" height="146.551" filterUnits="userSpaceOnUse" color-interpolation-filters="sRGB">
<feFlood flood-opacity="0" result="BackgroundImageFix"/>
<feColorMatrix in="SourceAlpha" type="matrix" values="0 0 0 0 0 0 0 0 0 0 0 0 0 0 0 0 0 0 127 0" result="hardAlpha"/>
<feOffset dy="16"/>
<feGaussianBlur stdDeviation="16"/>
<feComposite in2="hardAlpha" operator="out"/>
<feColorMatrix type="matrix" values="0 0 0 0 0.568627 0 0 0 0 0.431373 0 0 0 0 1 0 0 0 0.27 0"/>
<feBlend mode="normal" in2="BackgroundImageFix" result="effect1_dropShadow_9041_1727"/>
<feBlend mode="normal" in="SourceGraphic" in2="effect1_dropShadow_9041_1727" result="shape"/>
</filter>
<linearGradient id="paint0_linear_9041_1727" x1="94.0354" y1="3.00354" x2="94.0354" y2="84.4794" gradientUnits="userSpaceOnUse">
<stop stop-color="#38E9EA"/>
<stop offset="1" stop-color="#D32180"/>
</linearGradient>
<linearGradient id="paint1_linear_9041_1727" x1="94.0354" y1="3.00354" x2="94.0354" y2="84.4794" gradientUnits="userSpaceOnUse">
<stop stop-color="#BD9DFE"/>
<stop offset="1" stop-color="#916EFF"/>
</linearGradient>
<clipPath id="clip0_9041_1727">
<rect width="35.0333" height="33.9483" fill="white" transform="translate(64.7961 34.6627) rotate(23.8866)"/>
</clipPath>
</defs>
</svg>
