<svg width="27" height="27" viewBox="0 0 27 27" fill="none" xmlns="http://www.w3.org/2000/svg">
<path fill-rule="evenodd" clip-rule="evenodd" d="M13.5 0C9.8334 0 9.3744 0.0153 7.9344 0.081C6.4971 0.1467 5.5152 0.3753 4.6566 0.7092C3.7566 1.0476 2.9403 1.5786 2.2653 2.2662C1.5788 2.94042 1.04747 3.75615 0.7083 4.6566C0.3762 5.5152 0.1467 6.498 0.081 7.9353C0.0162 9.3744 0 9.8325 0 13.5C0 17.1675 0.0153 17.6256 0.081 19.0656C0.1467 20.5029 0.3753 21.4848 0.7092 22.3434C1.0476 23.2434 1.5786 24.0597 2.2662 24.7347C2.94044 25.4212 3.75616 25.9525 4.6566 26.2917C5.5152 26.6247 6.4971 26.8533 7.9344 26.919C9.3744 26.9847 9.8334 27 13.5 27C17.1666 27 17.6256 26.9847 19.0656 26.919C20.5029 26.8533 21.4848 26.6247 22.3434 26.2908C23.2434 25.9524 24.0597 25.4214 24.7347 24.7338C25.4212 24.0596 25.9525 23.2439 26.2917 22.3434C26.6247 21.4848 26.8533 20.5029 26.919 19.0656C26.9847 17.6256 27 17.1666 27 13.5C27 9.8334 26.9847 9.3744 26.919 7.9344C26.8533 6.4971 26.6247 5.5152 26.2908 4.6566C25.9519 3.75576 25.4205 2.93969 24.7338 2.2653C24.0596 1.5788 23.2439 1.04747 22.3434 0.7083C21.4848 0.3762 20.502 0.1467 19.0647 0.081C17.6256 0.0162 17.1675 0 13.5 0ZM13.5 2.4327C17.1045 2.4327 17.532 2.4462 18.9558 2.511C20.2716 2.5713 20.9862 2.79 21.4623 2.9763C22.0923 3.2202 22.5423 3.5136 23.0148 3.9852C23.4873 4.4577 23.7798 4.9077 24.0237 5.5377C24.2091 6.0138 24.4287 6.7284 24.489 8.0442C24.5538 9.468 24.5673 9.8955 24.5673 13.5C24.5673 17.1045 24.5538 17.532 24.489 18.9558C24.4287 20.2716 24.21 20.9862 24.0237 21.4623C23.8076 22.0487 23.4629 22.5792 23.0148 23.0148C22.5793 23.463 22.0487 23.8077 21.4623 24.0237C20.9862 24.2091 20.2716 24.4287 18.9558 24.489C17.532 24.5538 17.1054 24.5673 13.5 24.5673C9.8946 24.5673 9.468 24.5538 8.0442 24.489C6.7284 24.4287 6.0138 24.21 5.5377 24.0237C4.95131 23.8076 4.42081 23.4629 3.9852 23.0148C3.53716 22.5792 3.19242 22.0487 2.9763 21.4623C2.7909 20.9862 2.5713 20.2716 2.511 18.9558C2.4462 17.532 2.4327 17.1045 2.4327 13.5C2.4327 9.8955 2.4462 9.468 2.511 8.0442C2.5713 6.7284 2.79 6.0138 2.9763 5.5377C3.2202 4.9077 3.5136 4.4577 3.9852 3.9852C4.42075 3.53704 4.95127 3.19228 5.5377 2.9763C6.0138 2.7909 6.7284 2.5713 8.0442 2.511C9.468 2.4462 9.8955 2.4327 13.5 2.4327Z" fill="white"/>
<path fill-rule="evenodd" clip-rule="evenodd" d="M13.5 18.0044C12.9084 18.0044 12.3227 17.8879 11.7762 17.6615C11.2297 17.4352 10.7331 17.1034 10.3148 16.6851C9.89653 16.2668 9.56473 15.7702 9.33836 15.2237C9.11199 14.6772 8.99547 14.0915 8.99547 13.4999C8.99547 12.9084 9.11199 12.3226 9.33836 11.7761C9.56473 11.2296 9.89653 10.733 10.3148 10.3148C10.7331 9.89648 11.2297 9.56468 11.7762 9.33831C12.3227 9.11194 12.9084 8.99543 13.5 8.99543C14.6946 8.99543 15.8404 9.47001 16.6851 10.3148C17.5299 11.1595 18.0045 12.3053 18.0045 13.4999C18.0045 14.6946 17.5299 15.8403 16.6851 16.6851C15.8404 17.5298 14.6946 18.0044 13.5 18.0044ZM13.5 6.56093C11.6596 6.56093 9.89467 7.292 8.59336 8.59331C7.29204 9.89463 6.56097 11.6596 6.56097 13.4999C6.56097 15.3403 7.29204 17.1052 8.59336 18.4065C9.89467 19.7079 11.6596 20.4389 13.5 20.4389C15.3403 20.4389 17.1053 19.7079 18.4066 18.4065C19.7079 17.1052 20.439 15.3403 20.439 13.4999C20.439 11.6596 19.7079 9.89463 18.4066 8.59331C17.1053 7.292 15.3403 6.56093 13.5 6.56093ZM22.4577 6.43493C22.4577 6.86995 22.2849 7.28715 21.9773 7.59476C21.6696 7.90237 21.2524 8.07518 20.8174 8.07518C20.3824 8.07518 19.9652 7.90237 19.6576 7.59476C19.35 7.28715 19.1772 6.86995 19.1772 6.43493C19.1772 5.99991 19.35 5.5827 19.6576 5.2751C19.9652 4.96749 20.3824 4.79468 20.8174 4.79468C21.2524 4.79468 21.6696 4.96749 21.9773 5.2751C22.2849 5.5827 22.4577 5.99991 22.4577 6.43493Z" fill="white"/>
</svg>
