<svg width="27" height="27" viewBox="0 0 27 27" fill="none" xmlns="http://www.w3.org/2000/svg">
<path fill-rule="evenodd" clip-rule="evenodd" d="M0 13.095C0 5.57064 5.89504 0 13.5 0C21.105 0 27 5.57064 27 13.095C27 20.6194 21.105 26.19 13.5 26.19C12.134 26.19 10.8235 26.0096 9.59216 25.6711C9.3528 25.6052 9.09827 25.6238 8.87112 25.724L6.19156 26.9069C5.49064 27.2163 4.69943 26.7178 4.67594 25.9519L4.60242 23.5505C4.59338 23.2546 4.46027 22.9781 4.23976 22.7807C1.61298 20.4317 0 17.0307 0 13.095ZM9.35893 10.633L5.39331 16.9246C5.01274 17.5283 5.75492 18.2087 6.32346 17.7773L10.5832 14.5445C10.8713 14.3258 11.2695 14.3246 11.5589 14.5416L14.713 16.9072C15.6595 17.6171 17.0103 17.3679 17.6411 16.367L21.6068 10.0754C21.9872 9.47163 21.2451 8.79123 20.6765 9.22269L16.4168 12.4555C16.1286 12.6742 15.7305 12.6754 15.4411 12.4583L12.287 10.0928C11.3405 9.38293 9.98973 9.63214 9.35893 10.633Z" fill="white"/>
</svg>
