<svg width="60" height="60" viewBox="0 0 60 60" fill="none" xmlns="http://www.w3.org/2000/svg">
<circle cx="30" cy="30" r="30" fill="white"/>
<path d="M29.3125 42.375H24.5C23.7707 42.375 23.0712 42.0853 22.5555 41.5695C22.0397 41.0538 21.75 40.3543 21.75 39.625V20.375C21.75 19.6457 22.0397 18.9462 22.5555 18.4305C23.0712 17.9147 23.7707 17.625 24.5 17.625H35.5C36.2293 17.625 36.9288 17.9147 37.4445 18.4305C37.9603 18.9462 38.25 19.6457 38.25 20.375V28.625M28.625 19H31.375" stroke="#D50133" stroke-width="2" stroke-linecap="round" stroke-linejoin="round"/>
<path d="M38.2502 43.7496L42.8564 39.2341C43.1389 38.96 43.3636 38.6321 43.5172 38.2697C43.6709 37.9073 43.7504 37.5178 43.751 37.1242C43.7516 36.7306 43.6734 36.3409 43.521 35.978C43.3685 35.6151 43.1449 35.2865 42.8633 35.0115C42.2891 34.4489 41.5176 34.1331 40.7138 34.1316C39.9099 34.1301 39.1373 34.4429 38.5609 35.0032L38.2529 35.3057L37.9463 35.0032C37.3721 34.4411 36.601 34.1256 35.7975 34.124C34.9939 34.1225 34.2216 34.435 33.6453 34.995C33.3627 35.269 33.1379 35.5968 32.9842 35.9592C32.8304 36.3215 32.7508 36.7109 32.75 37.1045C32.7492 37.4981 32.8273 37.8879 32.9797 38.2508C33.132 38.6138 33.3556 38.9425 33.637 39.2176L38.2502 43.7496Z" stroke="#D50133" stroke-width="2" stroke-linecap="round" stroke-linejoin="round"/>
</svg>
