<svg width="24" height="24" viewBox="0 0 24 24" fill="none" xmlns="http://www.w3.org/2000/svg">
<path d="M3.13791 3.43383L11.8779 12.0048L3.20291 20.6548C3.06134 20.4698 2.95121 20.2627 2.87691 20.0418C2.8379 19.7917 2.8379 19.537 2.87691 19.2868V4.56683C2.85091 4.17183 2.94191 3.77683 3.13691 3.43383M15.6429 8.26683L12.7899 11.0928L4.15391 2.59983C4.43391 2.50283 4.73391 2.47583 5.02691 2.52183C5.48691 2.64783 5.92591 2.84183 6.32891 3.09483L14.1449 7.41983C14.6529 7.69283 15.1479 7.97983 15.6429 8.26683ZM12.7909 12.9298L15.6299 15.7178L13.5719 16.8638L7.29291 20.3538C6.77291 20.6408 6.25091 20.9148 5.74291 21.2278C5.52559 21.3633 5.28184 21.4508 5.02798 21.4844C4.77412 21.518 4.51601 21.497 4.27091 21.4228L12.7909 12.9298ZM20.1509 12.0048C20.1588 12.3546 20.0706 12.6999 19.8961 13.0031C19.7216 13.3063 19.4673 13.5559 19.1609 13.7248L16.8149 15.0268L13.7279 12.0048L16.8279 8.93083C17.6229 9.37383 18.4049 9.81683 19.1859 10.2338C19.4976 10.4077 19.7535 10.6664 19.9241 10.9799C20.0948 11.2933 20.174 11.6487 20.1509 12.0048Z" fill="#D50133"/>
</svg>
