<svg width="170" height="169" viewBox="0 0 170 169" fill="none" xmlns="http://www.w3.org/2000/svg">
<g filter="url(#filter0_d_2864_6581)">
<rect x="57.1406" width="105.716" height="102.442" rx="51.2211" transform="rotate(23.8866 57.1406 0)" fill="url(#paint0_linear_2864_6581)"/>
<rect x="57.1406" width="105.716" height="102.442" rx="51.2211" transform="rotate(23.8866 57.1406 0)" fill="url(#paint1_linear_2864_6581)"/>
</g>
<g clip-path="url(#clip0_2864_6581)">
<path d="M83.3011 51.0712C78.2184 48.8202 72.2916 51.0023 70.1104 55.9276C68.6354 59.2582 69.8374 63.5414 71.5714 68.156C73.3054 72.7707 75.7503 77.7495 77.5183 82.1222C77.6531 82.4554 77.9163 82.7256 78.25 82.8734C78.5838 83.0212 78.9607 83.0345 79.298 82.9104C83.7242 81.2808 89.0541 79.7451 93.6365 77.9278C98.219 76.1104 102.198 74.1219 103.673 70.7913C105.855 65.866 103.487 60.0108 98.4045 57.7598C95.4875 56.468 92.2758 56.8609 89.0391 58.5111C88.0857 55.0053 86.2181 52.363 83.3011 51.0712Z" fill="white"/>
</g>
<defs>
<filter id="filter0_d_2864_6581" x="0" y="0.34082" width="169.462" height="167.794" filterUnits="userSpaceOnUse" color-interpolation-filters="sRGB">
<feFlood flood-opacity="0" result="BackgroundImageFix"/>
<feColorMatrix in="SourceAlpha" type="matrix" values="0 0 0 0 0 0 0 0 0 0 0 0 0 0 0 0 0 0 127 0" result="hardAlpha"/>
<feOffset dy="16"/>
<feGaussianBlur stdDeviation="16"/>
<feComposite in2="hardAlpha" operator="out"/>
<feColorMatrix type="matrix" values="0 0 0 0 0.568627 0 0 0 0 0.431373 0 0 0 0 1 0 0 0 0.27 0"/>
<feBlend mode="normal" in2="BackgroundImageFix" result="effect1_dropShadow_2864_6581"/>
<feBlend mode="normal" in="SourceGraphic" in2="effect1_dropShadow_2864_6581" result="shape"/>
</filter>
<linearGradient id="paint0_linear_2864_6581" x1="109.999" y1="0" x2="109.999" y2="102.442" gradientUnits="userSpaceOnUse">
<stop stop-color="#38E9EA"/>
<stop offset="1" stop-color="#D32180"/>
</linearGradient>
<linearGradient id="paint1_linear_2864_6581" x1="109.999" y1="0" x2="109.999" y2="102.442" gradientUnits="userSpaceOnUse">
<stop stop-color="#BD9DFE"/>
<stop offset="1" stop-color="#916EFF"/>
</linearGradient>
<clipPath id="clip0_2864_6581">
<rect width="44.0485" height="42.6842" fill="white" transform="translate(73.2354 39.8054) rotate(23.8866)"/>
</clipPath>
</defs>
</svg>
