<svg width="144" height="144" viewBox="0 0 144 144" fill="none" xmlns="http://www.w3.org/2000/svg">
<path d="M107.999 108C110.386 108 112.675 107.052 114.363 105.364C116.051 103.676 116.999 101.387 116.999 99V77.022C116.999 74.635 116.051 72.3459 114.363 70.658C112.675 68.9702 110.386 68.022 107.999 68.022H95.5072C95.5072 64.86 95.6932 61.698 96.0652 58.536C96.6232 55.188 97.5532 52.212 98.8552 49.608C100.157 47.004 101.834 44.955 103.886 43.461C105.926 41.787 108.53 40.95 111.698 40.95V27C106.49 27 101.93 28.116 98.0182 30.348C94.1333 32.5519 90.7955 35.6036 88.2532 39.276C85.6937 43.3183 83.8091 47.7503 82.6732 52.398C81.5246 57.5257 80.963 62.7674 80.9992 68.022V99C80.9992 101.387 81.9474 103.676 83.6352 105.364C85.3231 107.052 87.6123 108 89.9992 108H107.999ZM53.9992 108C56.3861 108 58.6753 107.052 60.3632 105.364C62.051 103.676 62.9992 101.387 62.9992 99V77.022C62.9992 74.635 62.051 72.3459 60.3632 70.658C58.6753 68.9702 56.3861 68.022 53.9992 68.022H41.5072C41.5072 64.86 41.6932 61.698 42.0652 58.536C42.6292 55.188 43.5592 52.212 44.8552 49.608C46.1572 47.004 47.8342 44.955 49.8862 43.461C51.9262 41.787 54.5302 40.95 57.6982 40.95V27C52.4902 27 47.9302 28.116 44.0182 30.348C40.1333 32.5519 36.7955 35.6036 34.2532 39.276C31.6937 43.3183 29.8091 47.7503 28.6732 52.398C27.5247 57.5257 26.963 62.7674 26.9992 68.022V99C26.9992 101.387 27.9474 103.676 29.6352 105.364C31.3231 107.052 33.6123 108 35.9992 108H53.9992Z" fill="#E4E4E4"/>
</svg>
