<svg width="16" height="16" viewBox="0 0 16 16" fill="none" xmlns="http://www.w3.org/2000/svg">
<mask id="mask0_1644_236" style="mask-type:alpha" maskUnits="userSpaceOnUse" x="0" y="0" width="16" height="16">
<rect width="16" height="16" fill="#D9D9D9"/>
</mask>
<g mask="url(#mask0_1644_236)">
<path d="M8.00002 2.6665C7.81113 2.6665 7.65291 2.6025 7.52535 2.4745C7.39735 2.34695 7.33335 2.18873 7.33335 1.99984V1.33317C7.33335 1.14428 7.39735 0.985837 7.52535 0.857837C7.65291 0.730282 7.81113 0.666504 8.00002 0.666504C8.18891 0.666504 8.34735 0.730282 8.47535 0.857837C8.60291 0.985837 8.66669 1.14428 8.66669 1.33317V1.99984C8.66669 2.18873 8.60291 2.34695 8.47535 2.4745C8.34735 2.6025 8.18891 2.6665 8.00002 2.6665ZM8.00002 15.3332C7.81113 15.3332 7.65291 15.2692 7.52535 15.1412C7.39735 15.0136 7.33335 14.8554 7.33335 14.6665V13.9998C7.33335 13.8109 7.39735 13.6527 7.52535 13.5252C7.65291 13.3972 7.81113 13.3332 8.00002 13.3332C8.18891 13.3332 8.34735 13.3972 8.47535 13.5252C8.60291 13.6527 8.66669 13.8109 8.66669 13.9998V14.6665C8.66669 14.8554 8.60291 15.0136 8.47535 15.1412C8.34735 15.2692 8.18891 15.3332 8.00002 15.3332ZM14 8.6665C13.8111 8.6665 13.6529 8.6025 13.5254 8.4745C13.3974 8.34695 13.3334 8.18873 13.3334 7.99984C13.3334 7.81095 13.3974 7.6525 13.5254 7.5245C13.6529 7.39695 13.8111 7.33317 14 7.33317H14.6667C14.8556 7.33317 15.0138 7.39695 15.1414 7.5245C15.2694 7.6525 15.3334 7.81095 15.3334 7.99984C15.3334 8.18873 15.2694 8.34695 15.1414 8.4745C15.0138 8.6025 14.8556 8.6665 14.6667 8.6665H14ZM1.33335 8.6665C1.14446 8.6665 0.986243 8.6025 0.858687 8.4745C0.730687 8.34695 0.666687 8.18873 0.666687 7.99984C0.666687 7.81095 0.730687 7.6525 0.858687 7.5245C0.986243 7.39695 1.14446 7.33317 1.33335 7.33317H2.00002C2.18891 7.33317 2.34735 7.39695 2.47535 7.5245C2.60291 7.6525 2.66669 7.81095 2.66669 7.99984C2.66669 8.18873 2.60291 8.34695 2.47535 8.4745C2.34735 8.6025 2.18891 8.6665 2.00002 8.6665H1.33335ZM12 3.99984C11.8778 3.87762 11.8167 3.72473 11.8167 3.54117C11.8167 3.35806 11.8778 3.19984 12 3.0665L12.2334 2.8165C12.3556 2.68317 12.5111 2.6165 12.7 2.6165C12.8889 2.6165 13.05 2.68317 13.1834 2.8165C13.3167 2.94984 13.3834 3.11095 13.3834 3.29984C13.3834 3.48873 13.3167 3.64984 13.1834 3.78317L12.9334 4.0165C12.8 4.13873 12.6445 4.19984 12.4667 4.19984C12.2889 4.19984 12.1334 4.13317 12 3.99984ZM2.81669 13.1832C2.68335 13.0498 2.61669 12.8887 2.61669 12.6998C2.61669 12.5109 2.68335 12.3498 2.81669 12.2165L3.06669 11.9832C3.20002 11.8609 3.35558 11.7998 3.53335 11.7998C3.71113 11.7998 3.86669 11.8665 4.00002 11.9998C4.12224 12.1221 4.18624 12.2776 4.19202 12.4665C4.19735 12.6554 4.13335 12.8109 4.00002 12.9332L3.76669 13.1832C3.64446 13.3165 3.48891 13.3832 3.30002 13.3832C3.11113 13.3832 2.95002 13.3165 2.81669 13.1832ZM12.2167 13.1832L11.9834 12.9332C11.8611 12.7998 11.8 12.6443 11.8 12.4665C11.8 12.2887 11.8667 12.1332 12 11.9998C12.1222 11.8776 12.2778 11.8136 12.4667 11.8078C12.6556 11.8025 12.8111 11.8665 12.9334 11.9998L13.1834 12.2332C13.3167 12.3554 13.3834 12.5109 13.3834 12.6998C13.3834 12.8887 13.3167 13.0498 13.1834 13.1832C13.05 13.3165 12.8889 13.3832 12.7 13.3832C12.5111 13.3832 12.35 13.3165 12.2167 13.1832ZM3.06669 3.99984L2.81669 3.7665C2.68335 3.64428 2.61669 3.48873 2.61669 3.29984C2.61669 3.11095 2.68335 2.94984 2.81669 2.8165C2.95002 2.68317 3.11113 2.6165 3.30002 2.6165C3.48891 2.6165 3.65002 2.68317 3.78335 2.8165L4.01669 3.0665C4.13891 3.19984 4.20002 3.35539 4.20002 3.53317C4.20002 3.71095 4.13335 3.8665 4.00002 3.99984C3.8778 4.12206 3.72491 4.18317 3.54135 4.18317C3.35824 4.18317 3.20002 4.12206 3.06669 3.99984ZM8.00002 11.9998C6.88891 11.9998 5.94446 11.6109 5.16669 10.8332C4.38891 10.0554 4.00002 9.11095 4.00002 7.99984C4.00002 6.88873 4.38891 5.94428 5.16669 5.1665C5.94446 4.38873 6.88891 3.99984 8.00002 3.99984C9.11113 3.99984 10.0556 4.38873 10.8334 5.1665C11.6111 5.94428 12 6.88873 12 7.99984C12 9.11095 11.6111 10.0554 10.8334 10.8332C10.0556 11.6109 9.11113 11.9998 8.00002 11.9998Z" fill="white"/>
</g>
</svg>
