<svg width="191" height="28" viewBox="0 0 191 28" fill="none" xmlns="http://www.w3.org/2000/svg">
<path d="M27.5028 9.90107C27.4162 9.64581 27.2566 9.42151 27.044 9.25588C26.8313 9.09024 26.5747 8.99051 26.306 8.96901L18.4455 8.34441L15.0441 0.814822C14.9357 0.572309 14.7595 0.36633 14.5367 0.221745C14.3139 0.0771589 14.054 0.000145985 13.7884 2.07341e-07C13.5228 -0.000145571 13.2628 0.0765821 13.0399 0.220923C12.8169 0.365264 12.6405 0.57105 12.5319 0.813443L9.1304 8.34441L1.2699 8.96901C1.0058 8.98993 0.753323 9.08649 0.542667 9.24715C0.332011 9.40781 0.1721 9.62575 0.082065 9.87491C-0.00796995 10.1241 -0.0243163 10.3939 0.0349816 10.6521C0.0942796 10.9103 0.226711 11.146 0.416432 11.3309L6.22529 16.9936L4.17089 25.8896C4.10851 26.1588 4.1285 26.4406 4.22827 26.6984C4.32804 26.9562 4.50299 27.178 4.7304 27.3351C4.95782 27.4922 5.22721 27.5774 5.50361 27.5795C5.78 27.5816 6.05066 27.5006 6.28044 27.3469L13.788 22.3419L21.2955 27.3469C21.5304 27.5029 21.8073 27.5832 22.0892 27.577C22.371 27.5708 22.6442 27.4784 22.872 27.3124C23.0998 27.1463 23.2713 26.9144 23.3634 26.648C23.4555 26.3815 23.4638 26.0933 23.3871 25.822L20.8653 16.9977L27.1195 11.3695C27.529 11 27.6793 10.4236 27.5028 9.90107Z" fill="#E77C40"/>
<path d="M68.1122 9.90125C68.0255 9.64599 67.866 9.4217 67.6533 9.25606C67.4407 9.09042 67.1841 8.99069 66.9154 8.96919L59.0549 8.34459L55.6534 0.815005C55.5451 0.572492 55.3689 0.366513 55.1461 0.221928C54.9233 0.077342 54.6634 0.000329091 54.3978 0.000183313C54.1322 3.75349e-05 53.8722 0.0767652 53.6492 0.221106C53.4263 0.365447 53.2499 0.571233 53.1413 0.813627L49.7398 8.34459L41.8793 8.96919C41.6152 8.99011 41.3627 9.08668 41.152 9.24733C40.9414 9.40799 40.7815 9.62594 40.6914 9.8751C40.6014 10.1243 40.5851 10.3941 40.6444 10.6523C40.7037 10.9105 40.8361 11.1461 41.0258 11.3311L46.8347 16.9938L44.7803 25.8897C44.7179 26.159 44.7379 26.4408 44.8376 26.6986C44.9374 26.9564 45.1124 27.1782 45.3398 27.3353C45.5672 27.4924 45.8366 27.5776 46.113 27.5797C46.3894 27.5818 46.66 27.5008 46.8898 27.3471L54.3973 22.3421L61.9049 27.3471C62.1397 27.5031 62.4167 27.5833 62.6986 27.5772C62.9804 27.571 63.2536 27.4786 63.4814 27.3126C63.7092 27.1465 63.8806 26.9146 63.9727 26.6482C64.0648 26.3817 64.0731 26.0935 63.9965 25.8222L61.4747 16.9979L67.7289 11.3697C68.1384 11.0002 68.2887 10.4238 68.1122 9.90125Z" fill="#E77C40"/>
<path d="M108.716 9.90125C108.629 9.64599 108.47 9.4217 108.257 9.25606C108.044 9.09042 107.788 8.99069 107.519 8.96919L99.6584 8.34459L96.2569 0.815005C96.1486 0.572492 95.9724 0.366513 95.7496 0.221928C95.5268 0.077342 95.2669 0.000329091 95.0013 0.000183313C94.7357 3.75349e-05 94.4757 0.0767652 94.2528 0.221106C94.0298 0.365447 93.8534 0.571233 93.7448 0.813627L90.3433 8.34459L82.4828 8.96919C82.2187 8.99011 81.9662 9.08668 81.7556 9.24733C81.5449 9.40799 81.385 9.62594 81.295 9.8751C81.2049 10.1243 81.1886 10.3941 81.2479 10.6523C81.3072 10.9105 81.4396 11.1461 81.6293 11.3311L87.4382 16.9938L85.3838 25.8897C85.3214 26.159 85.3414 26.4408 85.4412 26.6986C85.5409 26.9564 85.7159 27.1782 85.9433 27.3353C86.1707 27.4924 86.4401 27.5776 86.7165 27.5797C86.9929 27.5818 87.2635 27.5008 87.4933 27.3471L95.0009 22.3421L102.508 27.3471C102.743 27.5031 103.02 27.5833 103.302 27.5772C103.584 27.571 103.857 27.4786 104.085 27.3126C104.313 27.1465 104.484 26.9146 104.576 26.6482C104.668 26.3817 104.677 26.0935 104.6 25.8222L102.078 16.9979L108.332 11.3697C108.742 11.0002 108.892 10.4238 108.716 9.90125Z" fill="#E77C40"/>
<path d="M149.321 9.90125C149.235 9.64599 149.075 9.4217 148.862 9.25606C148.65 9.09042 148.393 8.99069 148.124 8.96919L140.264 8.34459L136.862 0.815005C136.754 0.572492 136.578 0.366513 136.355 0.221928C136.132 0.077342 135.872 0.000329091 135.607 0.000183313C135.341 3.75349e-05 135.081 0.0767652 134.858 0.221106C134.635 0.365447 134.459 0.571233 134.35 0.813627L130.949 8.34459L123.088 8.96919C122.824 8.99011 122.572 9.08668 122.361 9.24733C122.15 9.40799 121.99 9.62594 121.9 9.8751C121.81 10.1243 121.794 10.3941 121.853 10.6523C121.913 10.9105 122.045 11.1461 122.235 11.3311L128.044 16.9938L125.989 25.8897C125.927 26.159 125.947 26.4408 126.047 26.6986C126.146 26.9564 126.321 27.1782 126.549 27.3353C126.776 27.4924 127.046 27.5776 127.322 27.5797C127.598 27.5818 127.869 27.5008 128.099 27.3471L135.606 22.3421L143.114 27.3471C143.349 27.5031 143.626 27.5833 143.908 27.5772C144.189 27.571 144.463 27.4786 144.69 27.3126C144.918 27.1465 145.09 26.9146 145.182 26.6482C145.274 26.3817 145.282 26.0935 145.205 25.8222L142.684 16.9979L148.938 11.3697C149.347 11.0002 149.498 10.4238 149.321 9.90125Z" fill="#E77C40"/>
<path d="M190.321 9.90125C190.235 9.64599 190.075 9.4217 189.862 9.25606C189.65 9.09042 189.393 8.99069 189.124 8.96919L181.264 8.34459L177.862 0.815005C177.754 0.572492 177.578 0.366513 177.355 0.221928C177.132 0.077342 176.872 0.000329091 176.607 0.000183313C176.341 3.75349e-05 176.081 0.0767652 175.858 0.221106C175.635 0.365447 175.459 0.571233 175.35 0.813627L171.949 8.34459L164.088 8.96919C163.824 8.99011 163.572 9.08668 163.361 9.24733C163.15 9.40799 162.99 9.62594 162.9 9.8751C162.81 10.1243 162.794 10.3941 162.853 10.6523C162.913 10.9105 163.045 11.1461 163.235 11.3311L169.044 16.9938L166.989 25.8897C166.927 26.159 166.947 26.4408 167.047 26.6986C167.146 26.9564 167.321 27.1782 167.549 27.3353C167.776 27.4924 168.046 27.5776 168.322 27.5797C168.598 27.5818 168.869 27.5008 169.099 27.3471L176.606 22.3421L184.114 27.3471C184.349 27.5031 184.626 27.5833 184.908 27.5772C185.189 27.571 185.463 27.4786 185.69 27.3126C185.918 27.1465 186.09 26.9146 186.182 26.6482C186.274 26.3817 186.282 26.0935 186.205 25.8222L183.684 16.9979L189.938 11.3697C190.347 11.0002 190.498 10.4238 190.321 9.90125Z" fill="#E77C40"/>
</svg>
