<svg width="16" height="8" viewBox="0 0 16 8" fill="none" xmlns="http://www.w3.org/2000/svg">
<path d="M15.8988 6.86474C15.8994 7.12953 15.8071 7.38614 15.6382 7.59003C15.5431 7.70478 15.4262 7.79964 15.2944 7.86917C15.1625 7.9387 15.0182 7.98153 14.8698 7.99521C14.7214 8.0089 14.5717 7.99317 14.4294 7.94892C14.287 7.90467 14.1548 7.83278 14.0403 7.73735L7.96599 2.66033L1.88036 7.55603C1.76444 7.65017 1.63106 7.72047 1.48788 7.76289C1.3447 7.80531 1.19456 7.81901 1.04607 7.80321C0.897576 7.78742 0.753672 7.74243 0.622625 7.67084C0.491578 7.59925 0.375972 7.50246 0.282452 7.38604C0.179284 7.26879 0.101465 7.13147 0.0538803 6.98272C0.00629559 6.83396 -0.0100276 6.67698 0.00593429 6.52162C0.0218962 6.36625 0.069799 6.21587 0.146637 6.0799C0.223474 5.94392 0.327587 5.8253 0.452442 5.73147L7.25203 0.257804C7.45481 0.0911212 7.70917 0 7.97166 0C8.23415 0 8.4885 0.0911212 8.69128 0.257804L15.4909 5.92413C15.628 6.03782 15.7364 6.18223 15.8073 6.34566C15.8782 6.50909 15.9096 6.68692 15.8988 6.86474Z" fill="white"/>
</svg>
